<svg id="Layer_1" data-name="Layer 1" xmlns="http://www.w3.org/2000/svg" xmlns:xlink="http://www.w3.org/1999/xlink" viewBox="0 0 100 33.15"><defs><style>.cls-1{fill:#fff;}.cls-2{fill:url(#linear-gradient);}.cls-3{fill:url(#linear-gradient-2);}.cls-4{fill:url(#linear-gradient-3);}.cls-5{fill:url(#linear-gradient-4);}.cls-6{fill:url(#linear-gradient-5);}.cls-7{fill:url(#linear-gradient-6);}.cls-8{fill:url(#linear-gradient-7);}.cls-9{fill:url(#linear-gradient-8);}</style><linearGradient id="linear-gradient" x1="30.29" y1="7.56" x2="34.39" y2="7.56" gradientUnits="userSpaceOnUse"><stop offset="0" stop-color="#00c7ff"/><stop offset="1" stop-color="#0080ff"/></linearGradient><linearGradient id="linear-gradient-2" x1="16.17" y1="8.35" x2="24" y2="8.35" xlink:href="#linear-gradient"/><linearGradient id="linear-gradient-3" x1="73.64" y1="14.32" x2="73.64" y2="21.59" xlink:href="#linear-gradient"/><linearGradient id="linear-gradient-4" x1="77.91" y1="14.32" x2="77.91" y2="21.59" xlink:href="#linear-gradient"/><linearGradient id="linear-gradient-5" x1="81.41" y1="14.32" x2="81.41" y2="21.59" xlink:href="#linear-gradient"/><linearGradient id="linear-gradient-6" x1="85.34" y1="14.32" x2="85.34" y2="21.59" xlink:href="#linear-gradient"/><linearGradient id="linear-gradient-7" x1="90.42" y1="14.32" x2="90.42" y2="21.59" xlink:href="#linear-gradient"/><linearGradient id="linear-gradient-8" x1="94.99" y1="14.32" x2="94.99" y2="21.59" xlink:href="#linear-gradient"/></defs><title>sc</title><path class="cls-1" d="M9.77,1.86a35,35,0,0,0-2.46,3.3l-.49-.48.29.7L6,5.12l.84.57-1.05.19,1,.23-.68.45h1l1.67,3.81a24,24,0,0,1-4.15-1S2.22,6.81,2.06,4c0,0-.15-5,7.71-2.12"/><path class="cls-1" d="M16.85,10.16s-1.61-.77-1.92-1.81c0,0,.29,1.87,1.92,1.81"/><path class="cls-1" d="M14.36,8.35a3,3,0,0,0,.57,1.09l1.12,1a3,3,0,0,0,.8.34h-1s-2-1.26-1.53-2.41"/><path class="cls-1" d="M13.64,13.63s.06-.22.15-.45a6.67,6.67,0,0,1,1.06-1.39s.38-.35,0-.1a4.43,4.43,0,0,0-1.16,1.62.47.47,0,0,0,0,.32"/><path class="cls-1" d="M13.17,13.24l0-.74.91-1,.58-.2h-.94a2.18,2.18,0,0,0-.77.79,2.7,2.7,0,0,0,.26,1.19"/><path class="cls-1" d="M9.25,6.58A10.5,10.5,0,0,1,12.63,3s.27-.35,2.44.42A63.9,63.9,0,0,1,25.6,8.52a2.75,2.75,0,0,0,3.65-.85s5.16-5.35,9.61-4.74c0,0,.88,1.49-.52,4.54a2.5,2.5,0,0,1-1.19,1.09S33,9.8,32.33,9.91a3.46,3.46,0,0,1-2.26-.24,19,19,0,0,0,6.08-1.81s.72-.22,1-1.42c0,0,.15-1.4,1-1.37l0,.25s.49-.64-.91-.59c0,0-4.12.23-8.44,5.07a2.59,2.59,0,0,0-1.11-.48l.35.31-.73.14,1,.06-.88.27A5,5,0,0,1,28.58,10l-.62.32a2.36,2.36,0,0,0,1-.19,1,1,0,0,1,.79,0l-.35.31a3.56,3.56,0,0,1,.92-.4.73.73,0,0,1,.73.73l.06,1.1.33-1,.13.63.1-.45.21.21,0-.13a24.86,24.86,0,0,1,5.34,4.13l.34-.13-.13.23.15.23.29-.15-.16.31h.39l-.2.21h.31l-.13.19.09.06.22-.18-.15.26,1.13,1.35-.46.74-.46-.26.33.35-.17.25L37.5,17.61l1,1.25s-2.09,1.83-5.69,0l-.13-1.73-.14,1.55s-4-2.74-5.58-3.83c0,0-2.92-2-5.05,2.59a10.63,10.63,0,0,0-.65,4.17s0,1.24-.59,1.24a17.07,17.07,0,0,1,.13-3l-.2,0,.24-.11v-.11l-.3-.11.34,0v-.09l-.59-.26.64,0L20.47,19l.46,0a6.73,6.73,0,0,1,3.18-4.62,7,7,0,0,0-1.93,1.22,4.81,4.81,0,0,1,2.26-1.84s-1.36-.12-3.13,2.21c0,0,1.71-3.22,4-2.68L24.88,13l0-.51.08.38.47.18-.35-.21v-.6l.07.49.47.18s-.72-1-.29-1.36l.63-.63-.55.4v-.19l-.16,0,.58-.9-1.66-.12.69.12-.58.22.8-.09a9.82,9.82,0,0,0-1.2.56l.1-.42L22.73,12s-.16.36-1.12.49a39.75,39.75,0,0,1-7.51,1.22,3.55,3.55,0,0,1,1.05-1.89s.1-.15.23.07l6.74-.72s1.36-.95,2.18-1.57c0,0-.05-.05.3,0l1.77.36s.21,0,.25-.15l.09-.65-.23.4s0,.1-.28.09l-1.34-.15.37-.08s.28-.05-.11-.2c0,0-8.87-3.08-10.71-3.42a1.4,1.4,0,0,0-1.73.36l.65-.13a5.55,5.55,0,0,0-.94,1.4s-.05,2.62,1.87,3.37L13.09,11l-.64.64s-.06.06,0,.29l.16.7A20.09,20.09,0,0,1,9.25,7.24s-.3-.49,0-.66"/><path class="cls-1" d="M39,2.16s1.92,0,.29,4.82c0,0,2.15.44,3-3.05,0,0,.25-3.42-3.27-1.77"/><path class="cls-2" d="M30.29,8.87a13,13,0,0,1,4-2.61s.8,1.85-3.37,2.49l-.13-.14Z"/><path class="cls-1" d="M34.58,7.69a2.16,2.16,0,0,0,.29-.43,1.91,1.91,0,0,0,.19-.52s.14.11.14.17a.48.48,0,0,1-.05.17,2.07,2.07,0,0,1-.57.61"/><path class="cls-1" d="M35.43,7.26a1.11,1.11,0,0,0,.08-.45l.13.12Z"/><path class="cls-3" d="M24,9.36l-7.83-2.3a4.84,4.84,0,0,0,.68,1.81,54.65,54.65,0,0,0,5.9.78L23,9.54s.07-.15.31-.1l.28.08A.47.47,0,0,0,24,9.36"/><polygon class="cls-1" points="37.84 8.68 34.58 10.16 35.86 11.39 34.58 11.2 35.53 12.05 34.39 12.05 36.52 14.04 33.45 11.7 34.89 11.7 34.03 11.08 35.2 10.97 33.91 10.16 37.84 8.68"/><path class="cls-1" d="M21.65,19.34a7.09,7.09,0,0,0,.12,2.84,3.74,3.74,0,0,1-.12-2.84"/><polygon class="cls-1" points="22.92 22.18 22.44 21.91 22.44 21.74 22.92 22.18"/><polygon class="cls-1" points="23.43 22.18 22.34 21.4 22.34 21.17 23.43 22.18"/><polygon class="cls-1" points="23.67 22.05 22.27 20.93 22.27 20.56 23.67 22.05"/><polygon class="cls-1" points="23.91 21.96 22.27 20.35 22.27 19.89 23.91 21.96"/><polygon class="cls-1" points="23.91 21.61 22.27 19.6 22.27 19.29 23.91 21.61"/><path class="cls-1" d="M23.67,20.92l0-.05L22.34,19s.27-5,4-4.14a6.66,6.66,0,0,1,2.25,1.22s2,1.73,3.13,2.95l-.39,1-1.07-.6,0-1-.48,1-1-.54a5.22,5.22,0,0,0,.33-1.57l-.59,1.78L30,20.56l0,2.29.16-2.29,1.37-.21.65,2.5-.43-2.4L33,20.21l.95,2.64-.79-2.62,1.3-.1L35,22.6l-.25-1.84,1.13-.47.66,1.16-.39.28-1,.71s5.49-3.61,4.35-5.38c0,0,.15.78-.25.12,0,0-.45-.23.41-.45,0,0,.13-.33.85.62a5.23,5.23,0,0,1-.27.92s.35-.22.58,0L43,21.14,42.23,21l1.06,1.61-.73-.1.17,2.19-.66-1.22S29.9,40.76,25,25.8l4.56-2.95H27.05l.05-.67s0-.41.37-.51l.91-.5-.06-1.68-.49-.15-.25-3,0,4.21-1.06-.67-.82-3.7.72,4.14-1.28-.44L23.67,17l.82,3.29-.59.07-1.13-2.17,1.13,2.55"/><path class="cls-1" d="M27.54,21.3s-.54.36-.62.66H25.45l-.16-.22,1.13-1,.66.41h.18Z"/><polygon class="cls-1" points="31.84 19.29 31.84 19.89 33.11 19.89 31.84 19.29"/><path class="cls-1" d="M26.74,22.18s-.47,1.29-.49,1.52h-1a2.4,2.4,0,0,1,.44-1.16Z"/><path class="cls-1" d="M45.7,8.14a.07.07,0,0,1,.07,0V8.3s0,.07,0,.11a.06.06,0,0,0,.06.05h3.22a.22.22,0,0,0,0-.09v-.1a.2.2,0,0,1,0-.09.07.07,0,0,1,.06,0s0,0,0,0l0,0v.23s0,0,0,0h.6l0,0v0c0-.07,0-.1.1-.1l0,0s0,0,0,0v0a.1.1,0,0,0,0,.07s0,0,0,0a.08.08,0,0,0,0,0v0s0,0,0,0h0s0,0,0,0,0,0,0,0,0,0,.07,0a.17.17,0,0,1,0,.12v0h.14a.07.07,0,0,1,0,0s0,0,0,0v0s0,0,0,0,0,0,0,0v.07s0,0,0,0,0,0,0,.08,0,.06,0,.07,0,0-.05.05,0,.15,0,.25a2.44,2.44,0,0,0,0,.27,1.25,1.25,0,0,0,0,.21c0,.06,0,.09.07.09h0v0a.17.17,0,0,1,0,.08s0,0-.09,0a.25.25,0,0,1-.05.17.07.07,0,0,1-.06-.07.3.3,0,0,0,0-.1s0,0,0,0,0,0-.05,0a0,0,0,0,1,0,0l0-.06H46.2l0,0h-.09a.23.23,0,0,0-.17.07.24.24,0,0,0-.07.18.17.17,0,0,0,.06.14.32.32,0,0,0,.14.08.57.57,0,0,0,.18,0h.19l.41,0H48.6l.32,0h.41s0,0,0,0h.13l.12,0h.68l.07,0a0,0,0,0,1,0,0l-.23,0-.25,0s0,0,0,0,.05,0,.05,0h0l.06,0,.08.08.1.1a1.07,1.07,0,0,1,.2.26q.06.13.06.12l0,.16a.23.23,0,0,1,0,.09.64.64,0,0,1,0,.07V12c0,.11,0,.23,0,.36a.45.45,0,0,0,0,.11v.13a.3.3,0,0,1-.05.19.49.49,0,0,0-.07.11h0v0l0,0a.1.1,0,0,0,0,.05.08.08,0,0,1,0,0h0a.15.15,0,0,1,0,.06s0,.05,0,0a.1.1,0,0,1,0,.09l-.07.09a.92.92,0,0,1-.13.09.88.88,0,0,1-.15.14l-.09.05,0,0s0,0,0,.05h.64l.11,0,.14,0h0a.32.32,0,0,0-.14,0,.5.5,0,0,1-.19,0h-.67a.56.56,0,0,0-.2,0,.47.47,0,0,1-.17,0h0a1.4,1.4,0,0,1-.06.32c-.06-.06-.09-.11-.08-.15a.12.12,0,0,0,0-.12s-.09,0-.2-.07a4.75,4.75,0,0,0-.63,0H45.78v.06s0,0,0,0h0V14s0,.06,0,.08l0,.11a.38.38,0,0,1-.06-.16v-.21h-.37l0,0h0a.14.14,0,0,0,0,.09s0,0-.06,0,0,0,0,0,0,0,0-.05a.13.13,0,0,0-.07-.05h-.14a.88.88,0,0,0,0,.17.16.16,0,0,1-.06.14s0,0-.06-.1a1.1,1.1,0,0,1,0-.18v0h-.15s-.05,0-.05,0v-.06a0,0,0,0,1,0,0h.12s.06,0,.06-.05V13a3.22,3.22,0,0,0,0-.33c0-.1,0-.15,0-.15h-.14s0,0,0-.06a.15.15,0,0,0,0-.07v0h.18s0,0,0,0v0a.53.53,0,0,1,0-.13s0-.06.05-.06.07,0,.07.1v.14H45l.07,0s0,0,0,0h0l0,0a.22.22,0,0,0,.14,0h.06l0,0,.07,0h.1s.05,0,.05,0l0,0h3a.69.69,0,0,0,.25,0,.14.14,0,0,0,.07-.06.19.19,0,0,0,0-.07s0,0,0,0h0V12.1a.17.17,0,0,0,0-.1.13.13,0,0,0-.07-.08.28.28,0,0,0-.15,0h-.37l0,0h0l0,0h0v0h-.1l-.16,0H45.81a.13.13,0,0,0,0,.08V12a.11.11,0,0,1,0,.06h-.13V12a.2.2,0,0,0,0-.09.37.37,0,0,1-.13,0,.75.75,0,0,1-.24,0h0v0s0,0,0,0l0,0h0s0,0,0,0h0a1,1,0,0,0-.18-.16l-.06,0h0s0,0-.06-.05h0l0,0a.41.41,0,0,0,0-.08s0,0-.06-.06l0-.06v0h0a.48.48,0,0,1-.11-.22c0-.12-.07-.24-.1-.37v0h0s0,0,0,0v0a.28.28,0,0,0,0-.06.5.5,0,0,1,0-.2v-.21a.49.49,0,0,0,0-.12V9.9s0-.1,0-.15l0-.16c0-.05,0-.07,0-.07l.07-.13.05-.09,0-.07q.12-.11.12-.15V9a.15.15,0,0,1,0-.06,1.22,1.22,0,0,1,.22-.16.84.84,0,0,1,.17-.13l.12-.08-.09,0h-.6l0-.06,0-.06h1a.22.22,0,0,0,0-.09V8.28C45.65,8.2,45.67,8.16,45.7,8.14Zm-1.19,1.91.13-.13,0,0h0l0,0c-.11,0-.18,0-.21.07s-.05.07-.06.07h0V10s0,.05,0,.05,0,0,0,0S44.5,10.05,44.51,10.05Zm0,.22h0s0,0,0,0l0,0a.13.13,0,0,1,.05-.07s0,0,.06-.06l-.06,0h-.06a.08.08,0,0,1-.07,0Zm.06.32a.11.11,0,0,1,.06-.07l.06-.07h-.07l0,0a.18.18,0,0,1,0,.06.13.13,0,0,0,0,.06A.05.05,0,0,0,44.56,10.59Zm0,.22a0,0,0,0,1,0,0s0,0,0,0h-.06a0,0,0,0,1,0,0v0Zm.09.15h0a0,0,0,0,0,0,0l0,0s0,0,0,0L44.7,11l0-.07,0,0Zm0,.23a.08.08,0,0,0,0,.06h0l.06,0s0,0,0-.05v0a.16.16,0,0,1-.11,0Zm.17.23c0,.05,0,.08.06.08a.13.13,0,0,1,.07-.11.15.15,0,0,0,.06-.07h0A.36.36,0,0,1,44.88,11.42Zm.58-1.91-.15.11,0,0h0l-.06.05,0,0,0,0,.12,0,.15-.08.13-.07,0-.06s0,0,0,0a.05.05,0,0,1,0,0Zm-.32,2.15s0,0,0,0v0S45.12,11.66,45.14,11.66Zm.23-2.37a0,0,0,0,1,0,0,0,0,0,0,0,0,0v0h0s0,0,0,0h-.07l-.08.08h0l0,0,0,0,0,0h0v0h0s0,0,0,0,0,0,0,0h0s0,0,0,0h0s0,0,0,0h0l.08,0a.07.07,0,0,0,0-.06.12.12,0,0,0,0,0l-.11.08Zm.06-.44-.08.05-.08,0V9h0l0,0,0,0h0s0,0,0,0h0l.08,0s.07-.05.07-.06h0s0,0,0,0h0s0,0,0,0,0,0,0,0v0l-.11.06Zm-.16,1.07v0l.06,0s0,0,0,0,0,0,0,0S45.3,9.92,45.27,9.92ZM45.52,9l-.07,0,0,0,0,0,0,0h0l.05,0,0,0h0l0,0,0,0h0Zm.07,1.2h0l0,0a0,0,0,0,1,0,0s0,0,0,0v0h0l-.05,0a.1.1,0,0,0,0,0l0,0a.21.21,0,0,0,.12,0,.17.17,0,0,1,.14-.06h0v-.1h0Zm-.13,1.5s0,0,0,0h0v0h0s0,0,0,0,0,0,0,0h.17s0,0,0,0a.13.13,0,0,1,0-.05h-.09Zm0-.52s0,0,0,0h0v0l0,0a0,0,0,0,0,0,0h0l0,0Zm0,.29,0,0,0,0h0l0,0,.05-.06s0,0,0,0Zm0-1.7h.1v0s0,0,0,0h0s0,0,0,0Zm.24-1.05s0,0,.07,0l.06-.06h-.09S45.78,8.63,45.78,8.7Zm0,1.82a.06.06,0,0,1,0,0s0,0,0,0l0,0s0,0,0,0Zm.24.09a.31.31,0,0,1-.13.17c-.07,0-.11.07-.11.09s0,0,0,0a1.89,1.89,0,0,1,.2-.2.43.43,0,0,0,.15-.18h-.09s-.06,0-.07,0a0,0,0,0,1,0,0Zm.55,1.9s0,0,0,0,0,0,0,0v0a.68.68,0,0,1-.14.11h0l-.25.18a.15.15,0,0,0-.06.07l0,0L46,13l-.13.11-.07.07h0l.06-.05.1-.08.18-.17.08-.06h0a.3.3,0,0,0,.11-.07l.08-.06.07-.06.08-.07.09-.07ZM45.81,9.6l0,0,0,0s-.07,0-.07.06S45.8,9.59,45.81,9.6Zm1-1a.18.18,0,0,0-.15.06l-.06.06,0,0-.06,0-.09.07h0L46.33,9l0,0,0,0-.11.05a0,0,0,0,0,0,0s0,0,0,0-.09,0-.14.09l-.09.11,0,0,0,0,.11,0s0,0,0-.05l0,0h0a.19.19,0,0,0,.1-.05l.1-.07.08,0s0,0,0,0h0l.2-.13.06,0h0l0,0,.25-.08.06,0v0s0,0,0,0l.06,0,0,0h-.23Zm-.74,0s0,0-.08.08l-.1.07a.5.5,0,0,0,.22-.1c0-.05.06-.06.05-.05Zm1.11.1-.07.05L47,8.82,47,8.89l-.06,0h0a.07.07,0,0,1,0,.06l-.08,0-.06,0s0,0,0,0l-.09.07a.21.21,0,0,0-.08.06h0l-.06,0-.07.07a.46.46,0,0,0-.07.07l0,0-.2.16L46,9.6a.09.09,0,0,0,0,.05h0l.16-.12,0,0s0,0,.07,0l0,0h0c.2-.16.36-.31.5-.44h0l.08-.07h0l0,0a.35.35,0,0,0,.1-.09.48.48,0,0,0,.16-.07l.08-.06.05,0h.06a0,0,0,0,1,0,0,0,0,0,0,0,0,0h-.21v0A.09.09,0,0,1,47.22,8.7Zm-.88,1.82c-.05.05-.09.11-.14.15l-.13.15a.13.13,0,0,0,.07,0s0,0,0,0l.05,0h0l.06-.07h0s0,0,.1-.07a.23.23,0,0,1,.06-.06Zm-.06,1.2a.09.09,0,0,1-.06,0l-.06,0a.1.1,0,0,1,0,0s0,0,0,0h.27s0,0,0,0h-.09Zm.92.79-.11.1a.44.44,0,0,1-.11.09.25.25,0,0,1-.08.05h0l0,0,0,0h0l0,0,0,0h0a.16.16,0,0,0-.15.08c0,.05,0,.08,0,.08l-.19.16-.19.16h0l0-.06.09-.07a.59.59,0,0,0,.11-.08h0s0,0,0,0,0,0,0,0h0l.08,0,.12-.09.13-.12.09-.08.24-.16c.07,0,.11-.07.11-.1Zm-.91.05s.07,0,.08-.05h0S46.31,12.55,46.29,12.56Zm1.38-3.87-.33.2a1.39,1.39,0,0,0-.26.18h0a.09.09,0,0,0-.06,0l-.06.05,0,0s0,0,0,0h0s0,0,0,0l0,0h0a.06.06,0,0,0-.05,0l-.06,0,0,0h0a1.56,1.56,0,0,0-.17.12s-.08.06-.08.08h0l.31-.23.15-.1.07,0L47,9.17s.06,0,.07-.05l0,0h0l.16-.16.06,0h0s0,0,0,0h0l.06-.07h0s0,0,0,0h0l0,0a.08.08,0,0,0,0,0h.06v0h0s0,0,0,0h0l.08-.05h0v0l.13,0,0,0s0,0,0,0l.07,0,.06,0h-.42v0S47.68,8.65,47.67,8.69ZM46.43,9.75h.3l.13,0s.06,0,.06-.08l-.11.05a.35.35,0,0,1-.14,0H46.6l0,0s0,0,0,0h0s0,0-.06,0A.1.1,0,0,0,46.43,9.75Zm0-1.15,0,0,0,0v0s0,0,0,0a.1.1,0,0,0,0,0Zm.13,3a.34.34,0,0,0,.15-.06.36.36,0,0,0,.11-.1,1,1,0,0,0,.08-.11s0,0,0,0h0a.86.86,0,0,1-.18.14A.66.66,0,0,0,46.61,11.55Zm.12-1,0,0s0,0,0,0h0a.18.18,0,0,1,.08-.07.27.27,0,0,0,.08-.07h-.1v0a0,0,0,0,1,0,0S46.73,10.58,46.73,10.59Zm.56-1.45s0,0,0,0h0s0,0,0,0,0,0,0,0h0l0,0a.06.06,0,0,1-.06,0,.07.07,0,0,1,0,.06l-.08,0-.07,0a0,0,0,0,0,0,0l-.09.07a.18.18,0,0,0,0,.07h0a.2.2,0,0,1,.09-.09l.09,0,0,0h0s0,0,0,0l0,0,0,0h0l0,0,.06-.07a.38.38,0,0,0,.09-.09h0S47.33,9.13,47.29,9.14Zm-.21,2.28a0,0,0,0,0,0,0l0,0,0,0h0s0,0,.09-.08l.08-.06h0A0,0,0,0,1,47.08,11.42Zm0-.87h0s0,0,0,0l0,0h-.05S47,10.53,47,10.55Zm.34.87-.06.07,0,0h0l-.09.08a.13.13,0,0,0,0,.07l.09,0,.11-.08a.3.3,0,0,0,.08-.08s0,0,0-.05h0Zm.14-2.14h0l0,0s0,0,0,0h0a.13.13,0,0,1-.06.07s0,0,0,0h0a0,0,0,0,0,0,0,.45.45,0,0,0-.1.09l-.08.1.05,0,0,0h0l.11-.09.06-.06h0l.11-.1.06-.07h0l0,0Zm-.2,1.29s0,0,0,0a0,0,0,0,0,0,0h0s0,0,0,0A0,0,0,0,0,47.31,10.57Zm.15-.82h.15s.06-.05.06-.12,0,0,0,0l-.1.07ZM48,12.51a.49.49,0,0,0-.24.15c0,.05-.06.08-.08.09a.22.22,0,0,1-.07.06l-.05,0Zm-.41-.77h.11l.06,0s0,0,0,0,0,0,0,0l-.06,0ZM48.72,9a1.53,1.53,0,0,1-.17.14l-.09.05h0a3.2,3.2,0,0,1-.36.27c-.08,0-.11.08-.11.12l-.06.07-.08.1a.39.39,0,0,0,.24-.09s.06-.06.06-.08v0l.12-.12.13-.12.15-.14h0a.1.1,0,0,1,0-.08A.27.27,0,0,1,48.66,9l.13-.06h0l0,0Zm-.83,2.59h0a.06.06,0,0,0,.06,0s0,0,0,0h0l.17-.11.06,0h0s0,0,0,0h0a.52.52,0,0,1,.08-.11.07.07,0,0,0,0-.06h0a1.27,1.27,0,0,1-.27.18A1.21,1.21,0,0,0,47.89,11.55Zm.18.1-.07,0-.08.06h.65a.08.08,0,0,0,0-.06.13.13,0,0,1,0-.06l-.1,0-.1,0c-.06,0-.09,0-.1,0a.06.06,0,0,0-.05-.06.09.09,0,0,1-.06,0Zm.33-2.73s0,0,0,0h-.08a.12.12,0,0,0-.07.07l0,0h0l0,0a.05.05,0,0,1,0,0h0l0,0,0,0h0L48.26,9,48.38,9l.06,0s0,0,0,0a.83.83,0,0,1,.16-.13l.1,0h.09L49,8.64l.06,0h-.28l0,0s0,0,0,0v0h0l-.17.1Zm0-.32-.07.05a.27.27,0,0,1-.08.07l-.11.08h0l.06,0,0,0h0v0h0s0,0,0,0h0l.1-.08,0,0h0l.05,0Zm0,1.1,0,0h0s0,0,.07,0h.09a0,0,0,0,1,0,0,0,0,0,0,0,0,0v0l0,0a.09.09,0,0,0,0-.05h0a.3.3,0,0,1-.08.08Zm.32,1.54a.12.12,0,0,0-.09,0l0,0-.05,0h0l-.1.08a.08.08,0,0,0,0,.08h0s0,0,.08-.05h.05l.11-.07.11-.08.08-.07s0,0,0-.06h0a.09.09,0,0,0-.07,0S48.72,11.22,48.71,11.24Zm-.19-.65a.05.05,0,0,1,0,0s0,0,0,0-.1,0-.1.06Zm.48.74-.08.06-.06,0h0s0,0,0,0,0,0,0,0a.19.19,0,0,0-.06.07l0,.07h0a.16.16,0,0,0,.13-.07s0-.07,0,0l.12-.11s.05-.05.05-.07H49Zm-.18-1.78,0,0h0l.06,0,.05,0h0L49,9.45l.05-.06h0v0s0,0,0,0a.43.43,0,0,1-.12.11Zm0,.2h0s0,0,0,0h0S48.87,9.73,48.86,9.75Zm.9-.85a.25.25,0,0,0-.09.07l0,0a.35.35,0,0,1-.21.09s0,0,0,0a.22.22,0,0,0-.12,0,.1.1,0,0,0,0,0s0,0,0,.06l0,0v.07s0,0,0,0l.17-.15.08,0h0a.15.15,0,0,0,.08,0l.18-.1s.08-.06.08-.07v0h0l0,0Zm-.39.7h0l0,0-.08,0s0,0,0,0v0h.1v0a.12.12,0,0,1,.06-.09s.06-.05.06-.07h0s0,0,0,0Zm-.15,1a.12.12,0,0,0,.09,0h-.08v0S49.22,10.6,49.22,10.61Zm1.13,1.83a0,0,0,0,1,0,0l0,0,0,0h0l-.08.09H50.1v0a0,0,0,0,0,0,0h0v0h0l-.13.11-.06,0h0l-.06.06-.19.11a1.09,1.09,0,0,0-.17.13.81.81,0,0,0-.13.11s-.05.06-.05.08,0,0,0,0,.07,0,.08,0a.05.05,0,0,0,0,0,.08.08,0,0,0,0,0l0,0s0,0,0,0l0,0,0,0h0l0,0,0,0h0a.15.15,0,0,0,.08,0s0-.05,0-.05h0l.07-.07,0,0h0l0,0,.06,0,0-.05h0a1.05,1.05,0,0,1,.26-.2l.11-.06h0v0A0,0,0,0,0,50.35,12.44Zm-.7-1.23-.17.13,0,.05h0s0,0,0,0h0c-.07.08-.12.12-.14.11s0,0,0,0v0s0,0,.07-.06l.06,0h0l.2-.15a.8.8,0,0,0,.16-.13h0v0l0,0Zm.18,1.32a1.2,1.2,0,0,1-.26.21.86.86,0,0,0-.2.14h0a0,0,0,0,0,0,0h0s0,0,.07-.06l.06,0a1,1,0,0,1,.24-.2l.14-.06.07,0s0,0,0-.05h-.06Zm.3-1.4-.07,0-.06,0,0,0h0l0,0,0,0h0s0,0,0,0,0,0,0,0h0c-.1.1-.17.15-.2.15l0,0h0l-.12.12-.06.05,0,0-.05.05.12-.06.14-.1.12-.1.09,0,.15-.1.1,0h0a.05.05,0,0,1,0,0l.06,0h0s0,0,.06,0a.11.11,0,0,0,.08,0l0,0a0,0,0,0,0,0,0A.14.14,0,0,0,50.13,11.13Zm-.68,1a.11.11,0,0,0,.07,0l.08,0,.06-.08L49.8,12l.06,0,0,0,0,0a.34.34,0,0,0-.15.06l-.06.05a.59.59,0,0,1-.16.12l-.09,0h0s0,0,0,0h.08Zm.15-1.55-.09.08-.06.05h0a.41.41,0,0,1,.13-.08s.07,0,.07,0,0,0,0,0Zm-.15,1.74h0s0,0,0,0v0S49.45,12.34,49.45,12.35Zm.12-2.6h0s0,0,0,0h0S49.58,9.73,49.57,9.75Zm.08-1.11.06,0h-.06s0,0,0,0S49.65,8.62,49.65,8.64Zm.16.5s-.05,0-.09,0-.07.06-.07.05h0a.17.17,0,0,1,.11-.06s.08,0,.09-.06h0Zm.63,2.71h0a.08.08,0,0,1,0,0s0,0,0,0l-.07,0-.09.07-.09.07,0,0a.77.77,0,0,1-.19.15.7.7,0,0,0-.17.14c.09,0,.14,0,.17,0s0-.05.05-.05a.19.19,0,0,0,.13-.06l.07-.06a.39.39,0,0,1,.1-.08.17.17,0,0,1,.11,0h0l0,0v-.12Zm-.58-1.07,0,0s0,0,0,0h0s0,0,0,0S49.85,10.78,49.86,10.78Zm0,.24H50L50,11l.09-.05a.05.05,0,0,1,0,0l0,0A.3.3,0,0,1,50,11,.27.27,0,0,0,49.9,11ZM50,8.79V8.7s0,0,0,0V8.8A0,0,0,0,0,50,8.79ZM50,9h0s0,0,0,0V9Zm.36,2.5,0,0a.79.79,0,0,1-.15.12l-.15.12a.17.17,0,0,0,.14-.06.19.19,0,0,1,.13,0h.06A.35.35,0,0,0,50.4,11.53Zm-.23.73a0,0,0,0,0,0,0h0l0,0,.06,0,.07,0s0,0,0,0l.05,0,.06,0s0,0,0,0,0,0,0,0a.3.3,0,0,1-.13.09A.29.29,0,0,0,50.17,12.26Z"/><path class="cls-1" d="M51.55,7.77v.58c0,.09,0,.13.05.13H52a.56.56,0,0,0,.2,0h.07s0,0,0,0h1l.08,0,.52-.05a5.12,5.12,0,0,1,.56,0h1.94l.24,0,.2,0a.5.5,0,0,1,.21.05l.18.12a1.36,1.36,0,0,1,.16.17.44.44,0,0,1,.06.1.54.54,0,0,0,.06.11.06.06,0,0,0,0,0V8.87a2.72,2.72,0,0,1,0-.28.92.92,0,0,1,0-.25.17.17,0,0,1,.05.13.82.82,0,0,1,0,.14v.11a1.69,1.69,0,0,1,0,.23,2.44,2.44,0,0,1,0,.27,2.26,2.26,0,0,1,0,.26,1.93,1.93,0,0,1,0,.25h.17s.08,0,.08,0,0,.06-.1.06H57.6v1.2c0,.39,0,.76,0,1.12a.57.57,0,0,0,0,.13.59.59,0,0,1,0,.14s0,0,.05,0h.23q.09,0,.09.06s0,0-.09,0H57.7l-.11,0s-.05,0-.05.05v.2a.92.92,0,0,1,0,.16.59.59,0,0,1,0,.14v0s0,0,0,0l0,0a.5.5,0,0,1,0,.16l-.06.1-.08.09a.63.63,0,0,0-.07.12h.44l.12,0h0s0,0,0,0l-.2,0H57.1c-.15,0-.37,0-.66,0s-.64,0-1.06,0l-.38,0-.45,0h-.1l-.1,0-.09,0H54l-.56,0h-.75l0,.25a1.64,1.64,0,0,1,0,.22s0,0,0-.08,0-.1,0-.16a.68.68,0,0,0,0-.15s0-.08-.07-.08c-.19,0-.39,0-.6,0a4,4,0,0,1-.6,0H51.1s0,0,0,0,0,0,.11,0l.21,0h-.13s.05,0,.13,0a1.39,1.39,0,0,1,.3,0h.06a.2.2,0,0,0,0-.08l-.08-.09-.08-.06s0,0,0,0h0a.31.31,0,0,1-.09-.13s0,0,0,0h0a.19.19,0,0,1,0-.11l0-.06v0a0,0,0,0,0,0,0s0,0,0-.06,0-.14,0-.22a1.69,1.69,0,0,0,0-.23l-.09,0h-.34c-.06,0-.1,0-.1-.07s0-.06.11-.06h.41v-.22c0-.06,0-.13,0-.19s0-.07,0-.1v-.11h0v0h0v0a0,0,0,0,1,0,0v0h0V11.6h0s0,0,0,0h0v-.06h0v0a0,0,0,0,1,0,0v0h0s0,0,0,0,0,0,0,0h0a.08.08,0,0,0,0,0,.11.11,0,0,1,0,0,.49.49,0,0,1,0-.12.28.28,0,0,0,0-.14.41.41,0,0,0,0-.11s0-.07,0-.1,0,0,0-.08a.37.37,0,0,0,0-.11v-.13l0-.12a.39.39,0,0,0,0-.13V10h-.17l-.08,0a.06.06,0,0,1,0-.06s0-.06.1-.06h.17s0,0,0,0V9.75c0-.1,0-.22,0-.35V9s0,0,0,0,0,0,0,0a.38.38,0,0,1,0-.1V8.76s0-.07,0-.09a.05.05,0,0,0-.06,0h-.29l-.09,0h-.29s-.07,0-.07,0h0s0,0,0,0h0a0,0,0,0,1,0,0h0l.17,0h.6V8.4s0-.05,0-.08,0-.15,0-.23,0-.15,0-.21a1.2,1.2,0,0,1,0-.24S51.54,7.69,51.55,7.77Zm0,5.1V13s0,0,0,0a.2.2,0,0,1,.06-.15.15.15,0,0,0,.06-.07h0a.1.1,0,0,1,0,.06Zm.58-1.28c-.09.09-.14.16-.17.19l0,.07v0a.18.18,0,0,1-.05.07q0,.13-.09.15l-.06,0a.19.19,0,0,1-.07.12l-.08.08v.07h.06s0,0,.07-.05a.18.18,0,0,0,.05-.07v0h0s0,0,0,0,0,0,.05-.08l.06-.08.07-.08a.13.13,0,0,1,.05-.07s0,0,0,0l0,0s0,0,0,0l0,0s0,0,0,0,0,0,0,0a.22.22,0,0,1,.08-.15s.07-.06.06-.06h0l0-.06a.13.13,0,0,0,0-.07h0l-.08.08Zm-.52-3s0,.06,0,.09v.1s0,0,0,0a.15.15,0,0,1,.08-.12.36.36,0,0,0,.11-.1.13.13,0,0,0-.1,0A.15.15,0,0,0,51.58,8.63Zm.06.78-.06.07a.08.08,0,0,0,0,0v0l0,0,.05-.06a.36.36,0,0,0,.07-.1l.17-.17.09-.1h0l-.18.18A1.33,1.33,0,0,0,51.64,9.41Zm.15.55a1.06,1.06,0,0,1-.15.15.18.18,0,0,0-.07.15s0,.05,0,.05a1.13,1.13,0,0,0,.13-.16l.06-.08,0-.06.12-.11L52,9.81a0,0,0,0,1,0,0s0,0,0,0,0,0,0,0h0l-.1.1Zm-.21.67v.06s0,0,0,0l.16-.23.06-.07h0v0h0v0l0,0h0l-.15.16A1.15,1.15,0,0,0,51.58,10.63Zm0,.43a0,0,0,0,0,0,0,.06.06,0,0,0,0,0l0,0a.37.37,0,0,1,0-.16s0-.05.06-.05,0,0,0,0h0l0,0s0,0,0,0h0l-.09.1Zm0-1.26,0,0a0,0,0,0,0,0,0h0s.06,0,.06,0v0s0,0,0,0h0a.36.36,0,0,0,.08-.09l0-.06h0l-.08.09Zm.12,3.67a.1.1,0,0,0,0,.08l.06,0,0,0H52v-.06a0,0,0,0,0,0,0s0,0-.05,0-.1,0-.1,0l-.05-.07A.05.05,0,0,1,51.74,13.47ZM52,8.86c-.09.09-.15.15-.15.18s0,0,0,0A.21.21,0,0,0,51.9,9l.1-.09.08-.09s0,0,0,0H52S52,8.81,52,8.86Zm.3,4a.14.14,0,0,1-.06.12s-.06.06-.06.08h0a.63.63,0,0,1,.11-.12l.11-.13h-.08Zm-.11-4.21h.08a.09.09,0,0,0,.08,0h-.1S52.15,8.67,52.15,8.69Zm.18.23-.1.1a.38.38,0,0,0-.08.11L52.33,9a.24.24,0,0,0,.1-.16s-.06,0-.07,0Zm0,1.11s0,0,0,.06-.05,0-.05.06h0l.06-.06s0,0,.07,0h0a0,0,0,0,1,0,0,0,0,0,0,0,0,0h0l0,0Zm-.06,3.61h.05s0,0,0,0,0,0,0,0,0,0,0,0S52.23,13.63,52.23,13.64Zm.1-3v0s0,0,0,.07a.07.07,0,0,0,0,.06h0s0,0,.06-.05l.06,0v-.08s0,0,0,0l0,0Zm-.07-1.34,0,0,0,0v0l0,0,0,0Zm0,.37s0,0,0,0,0,0,0,0-.08,0-.08,0Zm0,1.49s0,0,0,0h.05v-.06s0,0,0,0a.21.21,0,0,1,0,.06A.18.18,0,0,0,52.28,11.2Zm0,.56h.13a.44.44,0,0,0,0-.09.13.13,0,0,0,0-.08l-.05.08A.41.41,0,0,0,52.28,11.76Zm.09.21h0l0,0s0,0,0,0h0a.05.05,0,0,1,0,0l.06,0s0,0,0-.06,0,0,0,0,0,0,0,0Zm0-1.65,0,0a.05.05,0,0,0,0-.06s0,0,0,0,0,0,0,0Zm.05,2.06s0,0,0,0h0l0,0v0Zm.09-3.54v0s0,0,0,0S52.45,8.84,52.47,8.84Zm.17-.18h-.08l-.05,0h.06A.08.08,0,0,0,52.64,8.66Zm-.11.17h0s0,0,0,0h0A0,0,0,0,0,52.53,8.83ZM53,9l-.18.09-.05.05s0,0,0,0,0,0,0,0a.36.36,0,0,1-.09.08.12.12,0,0,0-.06.09s0,0,0,0a.09.09,0,0,1,0-.07l.09-.07a.74.74,0,0,1,.13-.08h0s0,0,0-.06A.12.12,0,0,1,53,9.09h0S53,9,53,9h0L53.1,9s.06-.06.07,0,0,0,0,0h0l-.1.08Zm-.23,4.65h.35s0,0,0,0H53l0,0a.08.08,0,0,1,0-.07h0s0,0,0,0a.39.39,0,0,1-.1.08ZM56,9.87h-.06l-.93,0c-.34,0-.67,0-1,0h-.42a.48.48,0,0,1-.16.07l-.22,0-.22,0-.19,0c0,.38,0,.75,0,1.11s0,.71,0,1.06v.08a.29.29,0,0,1,0,.09l.13.07.12.07a4.58,4.58,0,0,1,.53,0h2.39a.09.09,0,0,0,.06,0l.06-.06,0-.07,0,0v0a0,0,0,0,0,0,0c0-.15,0-.3,0-.47s0-.34,0-.51,0-.35,0-.52,0-.32,0-.46v-.12a.53.53,0,0,0,0-.13S56,9.9,56,9.87Zm-3.16,2.68s0,0,.06,0l0,0-.06,0-.05,0S52.77,12.55,52.79,12.55ZM53,8.83h0s0,0,0,0h0a0,0,0,0,0,0,0Zm.48,4.81.1,0s.06,0,.06-.08h0a.13.13,0,0,1-.07.06A.11.11,0,0,0,53.44,13.64Zm0-4.14h0s.06,0,.06,0l0,0a0,0,0,0,1,0,0S53.45,9.49,53.45,9.5Zm.21,3.4,0,0s0,0,0,0h0a.38.38,0,0,1,.09-.09.34.34,0,0,0,.09-.08h0a.05.05,0,0,0-.05,0Zm.1-4.09-.08.08L53.59,9h0l.12-.09a.38.38,0,0,0,.13-.09h-.08Zm.24.61-.09.06s0,0,0,0,.13,0,.15,0a.21.21,0,0,1,.1-.08h-.06Zm0,3.48,0,0h0l.1-.07a.3.3,0,0,0,.08-.08H54a.43.43,0,0,1,0,0A.08.08,0,0,0,54,12.9Zm0-4s0,0,0,0h0l0,0,0,0h0l.07,0a.24.24,0,0,0,.09-.08.17.17,0,0,0-.12.06A.19.19,0,0,1,54,8.93Zm.65-.13-.17.13L54.41,9a.28.28,0,0,0,.21-.08l.08-.07a.06.06,0,0,1,0,0,.08.08,0,0,0,0,0Zm-.24,4.1s0,0,0-.05a.12.12,0,0,0,0,0h-.07a.08.08,0,0,0,0,.07Zm0-3.4h0s.05,0,.05,0,0,0,0,0h0l-.05,0Zm.37,3.38,0,0s0,.05,0,.06h0a.22.22,0,0,1,0-.08l0,0h0s0,0,0,0,0,0,0,0H55s0,0-.06,0h-.07Zm-.08.73h0s0,0,0,0,0,0,0,0h0Zm.32-4.13h.12V9.42s0,0,0,0a.1.1,0,0,1-.05,0A.08.08,0,0,0,55.07,9.48Zm.48,4.16h0a.09.09,0,0,1-.06,0h.11s0,0,0,0A0,0,0,0,0,55.55,13.64Zm-.26-.76,0,0s0,0,0,0h0a.28.28,0,0,1,.08-.06s.06,0,.06-.06H55.3S55.3,12.88,55.29,12.88Zm0-4h0l0,0s0,0,0,0h0S55.29,8.82,55.27,8.84Zm0,4.77h0s0,0,0,0l0,0h0l0,0S55.25,13.59,55.25,13.61Zm.53-.79-.1.11-.11.12-.11.1,0,0s0,0,0,0l0,0,0,0,0,0h0l0,0h0a1.08,1.08,0,0,1,.11-.11l.06-.05h0l0,0h0s0,0,0,0l0,0Zm-.3-4.16h.19c.07,0,.11,0,.11,0h-.3Zm0,.82h.12V9.41l-.07,0A.05.05,0,0,0,55.51,9.48Zm.35-.87h0a.11.11,0,0,1,.08,0,.12.12,0,0,0,.09,0l.11,0a.12.12,0,0,0,.09-.06Zm.16,5h0s0,0,0,0h0v0H56S56,13.61,56,13.59Zm0-4.16,0,0s0,0,0,0l0,0h.06s0,0,0-.06,0,0,0,0h0l0,0Zm.26,4.21h.1v0s0,0,0,0l0,0S56.33,13.62,56.32,13.64Zm.14-4.92h.07l.08,0s0,0,0,0h-.17s0,0,0,0A.13.13,0,0,1,56.46,8.72Zm.77,3.45L57,12.3a.3.3,0,0,0-.08.07l-.06.05-.14.09h0a.11.11,0,0,0-.08,0,.1.1,0,0,0-.06.05l0,.05s0,0,0,0h0s0,0,0,0h0l.06,0,.06,0h.07l0,0h.07l.27-.15.09-.06,0,0,.09,0h0v-.07s0,0,0,0Zm0-3.27a.21.21,0,0,0-.12,0A.17.17,0,0,0,57,9l0,0s0,0,0,0h0a.29.29,0,0,0-.1.07l0,0h0l-.12.11,0,0h0l-.06.05v0h0s0,0,0,0h0c.05-.05.09-.08.13-.08a.21.21,0,0,0,.1-.06h0s0,0,0,0,0,0,0,0h.16l.07,0,.06,0h0l.12,0A.43.43,0,0,1,57.31,9,.16.16,0,0,0,57.21,8.9Zm-.61,1.54-.07,0s0,0,0,.08h0a.1.1,0,0,0,.1,0s0,0,0,0h0l0,0s0,0,0,0h0l0,0Zm.22-1.64a.19.19,0,0,0-.13.09s0,0-.06,0h0s0,0,0,0h0s0,0,0,0,0,0,0,0a.2.2,0,0,0,.08,0s0,0,0,0l.17-.09L57,8.78l-.07,0h-.08v0s0,0,0,0Zm0,2.35-.08,0h-.05l-.08,0s0,0,0,.11a.11.11,0,0,0,.07,0l.07,0,.05-.05s0,0,0,0h0l0,0,0,0h0Zm-.19.55s0,0,0,0l0,0h0l0,0S56.58,11.7,56.59,11.7Zm.63,0h0s0,0,0,0,0,0,0,0h0c-.11.1-.17.16-.2.16h0a.56.56,0,0,1-.13.07l-.09.06,0,0h0l.13-.06,0,0h0l0,0L57,12l.1,0,.07,0h0c.08,0,.12-.06.12-.08V11.7h0Zm-.15-1.34h0l-.24.13-.09.07s0,0,0,0h0l.19-.08.19-.07v-.08a0,0,0,0,0,0,0A.07.07,0,0,1,57.07,10.4Zm0-.68h0l-.05,0-.08.06-.09.06h0l0,0h0A.89.89,0,0,1,57,9.77l.11,0h0s0,0,0-.05v0A.09.09,0,0,0,57.06,9.72ZM56.78,11l.19,0,.18-.07s0,0,0-.06,0,0,0-.06a.71.71,0,0,1-.18.12A.66.66,0,0,0,56.78,11Zm.41,1.63,0,0-.11.07-.13.08-.1.06v.07s0,0,0,0h0l0,0h0a0,0,0,0,0,0,0h0a.44.44,0,0,1,.21-.13c.09,0,.14-.05.14-.07h0a0,0,0,0,0,0,0h0v0h-.11Zm-.33-2.43L57,10.1l.14,0V10l-.13.09Zm.26-1.46s0,0,0,0l0,0h0l0,0s0,0,0,0h.09Zm0,2.52,0,0s0,0,0,0h0l0,0A0,0,0,0,0,57.09,11.21Zm0-1.82,0,0h0s0,0,0,0Zm.12,1.76h.05V11.1s0,0,0,0h0s0,0,0,0Zm0-1.5h0s0,0,0,0,0,0,0,0a.07.07,0,0,0,0,.05Zm0,1s0,.05,0,.06v0s0,0,0,0,0,0,0,0v-.11s0,0,0,0v0Zm0-1.34a.05.05,0,0,1,0,0s0,0,0,0v0h0l0,0Zm0,1.08a.15.15,0,0,1,0-.07s0-.05,0-.05h0a.08.08,0,0,1,0,.07s0,.05,0,.05Zm0,2.7h0s0,0,0,0,0,0,0,0l0,0S57.3,13.1,57.3,13.11Zm.07-.47s0,0,0,0,0,0,0,0h0a0,0,0,0,0,0,0Zm0-3.36,0,0s0,0,0,0h0v0Zm0,.23v.11s0,.05.05.06,0-.07,0-.09a.28.28,0,0,0,0-.09s0,0,0,0S57.4,9.5,57.37,9.51Zm0,.7a.25.25,0,0,0,0,.1v.2a1.34,1.34,0,0,1,0,.2v.07c0,.05,0,.07,0,.07v-.6c0-.06,0-.1,0-.1a0,0,0,0,1,0,0A0,0,0,0,0,57.39,10.21Zm0,.79a.09.09,0,0,0,0,.05v.06a.19.19,0,0,0,0,.08s0,0,0,.06v0a.07.07,0,0,0,0,.05s0,.06,0,.06V11s0-.06,0-.06,0,0,0,0S57.39,11,57.39,11Zm0,.73v0s0,0,0,0,0,0,0-.09v-.1s0,0,0,0A.62.62,0,0,0,57.39,11.73Zm0-1.69a.57.57,0,0,1,0-.12c0-.05,0-.07,0-.07V10S57.4,10,57.42,10Zm0,2.17v-.1s0,0,0-.06,0,0,0,.09S57.4,12.21,57.41,12.21Z"/><path class="cls-1" d="M63.8,8.38a.12.12,0,0,1,0,.09v.07s0,0,.06,0h.3a.34.34,0,0,1,.12,0,.34.34,0,0,1-.1,0l-.15,0-.15,0s-.07,0-.07,0v.69a.08.08,0,0,0,0,.07s0,0,0,.06,0,.06,0,.07a.2.2,0,0,0,0,.08h.24l.15,0h0l0,0s0,0,0,0,0,0,0,0h-.47a0,0,0,0,0,0,0,.06.06,0,0,1-.06.05.08.08,0,0,1,0-.05l0,0a1.82,1.82,0,0,1-.45,0H60v.62a.49.49,0,0,1,0,.12.45.45,0,0,1,0,.11.49.49,0,0,0,0,.13.43.43,0,0,0,0,0L60,11a.13.13,0,0,1,0,.06.19.19,0,0,0,0,.08s0,0,.05,0h1a.2.2,0,0,0,.11,0l.08,0,.06,0,0,0h1c.1,0,.15,0,.15,0V11l0,0h0s0,0,0,0a0,0,0,0,1,0,0h0a.13.13,0,0,1,0,.09.22.22,0,0,0,0,.09h.28a.52.52,0,0,1,.23.05.24.24,0,0,1-.14,0l-.25,0h-.11v.13s0,0,0,.05,0,0,0,0,0,.09,0,.13a.53.53,0,0,0,0,.13v.62a.13.13,0,0,0,.1,0h.38a.48.48,0,0,1,.18,0l-.07,0-.12,0h-.47a1,1,0,0,0,0,.16.39.39,0,0,1-.05.13.5.5,0,0,1-.08-.29H60.15l-.18,0a.15.15,0,0,0,0,.07s0,0,0,.06l0,0v0s0,0,0,0,0,.11,0,.19v.22a1.7,1.7,0,0,0,0,.22v.18a.22.22,0,0,0,0,.08v.15a.22.22,0,0,0,0,.08V14h0v0h0a.26.26,0,0,0,0,.07v.27a.86.86,0,0,1,0,.16.28.28,0,0,1,0,.13s0,.05,0,.05,0-.09,0-.18a3,3,0,0,1,0-.52v-.09a.28.28,0,0,0,0-.09l-.06,0h-.91l-.21,0a.21.21,0,0,0,0,.14.43.43,0,0,1,0,.21.2.2,0,0,1-.06-.14,1.21,1.21,0,0,1,0-.18v0l0,0h-.08l-.06,0a.42.42,0,0,1,0-.06.25.25,0,0,1,.08-.05h.11a.25.25,0,0,1,0-.1v-.13s0,0,0,0,0-.05,0-.11,0,0,0-.07l0-.08a1.33,1.33,0,0,1,0-.29c0-.1,0-.2,0-.3h-.52a.08.08,0,0,1,0-.05c0-.05.06-.07.17-.07h.22a.08.08,0,0,1,.07,0h.08s0,0,0-.07a.09.09,0,0,0,0-.07s0,0,0-.06,0,0,0-.06a.06.06,0,0,0,0-.05,1.64,1.64,0,0,1,0-.2v-.27c0-.1,0-.18,0-.25s0-.11,0-.11h-.06s-.05,0-.05,0,0-.05,0-.06h.1l0,0V9.91h-.3s-.06,0-.06-.05,0,0,.06,0h.21c.06,0,.1,0,.09,0V9.38A.8.8,0,0,1,58.56,9a.57.57,0,0,0,.09-.2l.06-.06a.17.17,0,0,1,.06-.06h0A.29.29,0,0,1,59,8.57a.93.93,0,0,0,.23,0l0,0a.05.05,0,0,1,0,0l.08,0,.07,0,.08,0a.13.13,0,0,1,.08,0,0,0,0,0,1,0,0,.06.06,0,0,0,0,0h2.68l.18,0H63l.09,0h.15l.05,0h.18a.14.14,0,0,0,.1-.06h.13v0a.05.05,0,0,1,0,0ZM58.62,9.91s0,0,0,0a.05.05,0,0,0,0,0h0l0,0,0,0Zm0,.32s0,0,0,0,0,0,0,0h0a0,0,0,0,1,0,0A0,0,0,0,0,58.61,10.23Zm.07.25h-.09v.06s0,0,0,0l.09-.08.09-.08.1-.08h0A.39.39,0,0,1,58.68,10.48Zm-.09.37v.08s0,0,0,0a.17.17,0,0,1,.06-.1.3.3,0,0,0,.08-.08l-.08,0Zm0,.32h.11s0,0,0-.05h0a.13.13,0,0,1-.11-.07Zm.26.23h0a.09.09,0,0,0-.07,0l-.06,0-.06.06h0a.13.13,0,0,1,0,.06.07.07,0,0,0,0,.05l.08-.1.1-.09.09-.08,0,0h0l0,0Zm-.24.94s0,0,0,0l0,0h0s0,0,0,.05h0Zm0,.33a.06.06,0,0,0,.06,0,.05.05,0,0,1,0,0h-.06S58.59,12.62,58.59,12.67Zm0,.72v.06s0,0,0,0a.16.16,0,0,1,0-.08.18.18,0,0,1,.07-.05h0s0,0,0,0h0a.1.1,0,0,1-.06,0Zm.05-4.25v0s0,0,0,0h0a.16.16,0,0,1,.07-.07.23.23,0,0,0,.07-.07h-.12A.07.07,0,0,1,58.67,9.14Zm.17,4.53H59a.05.05,0,0,0,0,0,.05.05,0,0,1,0-.05s0,0,0,0a.18.18,0,0,1-.07,0A.12.12,0,0,0,58.84,13.67Zm.5-1.07a.06.06,0,0,0-.06,0,.1.1,0,0,1,0,0h0s0,0,0,0h0l.13-.09.12-.1a.1.1,0,0,0-.08,0Zm-.08,1.07h.06s0,0,0-.06a0,0,0,0,0,0,0s0,0,0,0S59.26,13.64,59.26,13.67Zm.43-2.39h0a1.56,1.56,0,0,1-.28.24l-.11.09h0a.31.31,0,0,1,.1-.08l.08,0,.07,0,.07,0,.06,0,0,0h.1v-.07h-.13Zm.07-2.56a.19.19,0,0,0-.17.08c0,.06-.06.09-.08.09s0,0,0,0l0,0h0a.93.93,0,0,1-.15.13l.23-.16a.4.4,0,0,1,.24-.1h.07v0a.43.43,0,0,1,0-.05s0,0,0,0l0,0Zm-.07,1.51-.11.06,0,0v0l0,0-.12.09-.08.08s0,0,0,0a.4.4,0,0,1,.15-.12l0,0a.13.13,0,0,0,.07,0s0,0,0,0h0s0,0,0,0h.1s0,0,0,0,0,0,0,0,0,0,0-.08v-.12A.26.26,0,0,0,59.69,10.23Zm0,1.36-.26.23-.13.07h0s0,0,0,0h0l0,0,0,0h0a.59.59,0,0,1,.17-.13l.21-.11a.14.14,0,0,1,0-.06l0,0h0l0,0Zm-.14-.95a.45.45,0,0,0-.21.15s0,.05,0,0h0c.05-.05.08-.08.11-.08h0l0,0,0,0h0l0,0,0,0h0l0,0,0,0,0,0h0v-.09s0,0,0,0A1.49,1.49,0,0,1,59.59,10.64Zm.08-1.05-.13.1a.29.29,0,0,0-.12.1.32.32,0,0,0,.18-.06.34.34,0,0,1,.09-.06l0,0,.06,0h-.07Zm.06-.6a.05.05,0,0,0,0,0s0,0,0,0a0,0,0,0,1,0,0h0l-.11.09a.28.28,0,0,0-.09.07h0v0a.34.34,0,0,0,.18-.08A1.46,1.46,0,0,1,59.78,9s0,0,0,0,0,0,0,0h0S59.73,9,59.73,9Zm-.29,2.17h0a.08.08,0,0,0,.07,0s0,0,0,0h0l0,0s0,0,0,0h0l.12-.07a.11.11,0,0,0,0-.1s0,0,0,0l-.19.15Zm0,1h0l.15-.1c.07,0,.1-.06.1-.09s0,0,0,0l-.11.1Zm.09.65s0,0,0,0h0a.05.05,0,0,1,0-.05l.05,0h0l0,0h0a.1.1,0,0,1,.06-.05.2.2,0,0,1,.08,0v-.08s0,0,0,0A2,2,0,0,1,59.56,12.77Zm0-.37a.16.16,0,0,0,.11,0l.09,0h0a0,0,0,0,0,0,0,.15.15,0,0,1-.06,0s0,0,0,0a.2.2,0,0,0-.09.05A.31.31,0,0,0,59.56,12.4Zm.06,1.27h0s0,0,0,0a0,0,0,0,0,0,0S59.62,13.64,59.62,13.67Zm.08-3.73s0,0,0,0S59.71,9.92,59.7,9.94ZM59.78,13h0s0,0,0,0,0,0,0,0l0,0ZM60,8.71s0,0,0,0a.05.05,0,0,0,0,0H60v0A0,0,0,0,0,60,8.71Zm0,3.54v.09s0,0,.06,0,0,0,0,0a.36.36,0,0,1,0-.1l0,0s0,0,0,0Zm0-2.71s0,0,0,0v0h0s0,0,0,0Zm0,1.78s0,0,0,0v0h0S60,11.32,60,11.32Zm1.27,0-.26.23-.09.07,0,0-.07.07s0,0-.08.07a.46.46,0,0,0-.1.1h0l0,0-.07.07-.05.07,0,0s0,0,0,0a.09.09,0,0,0-.06,0l0,.06v0h0l0,.07h0l0,0,0,0h0s0,0,0,0h0l.08,0,.08-.08.07-.08,0,0a1.9,1.9,0,0,0,.45-.37c.08-.11.14-.16.17-.16l0,0,0-.05.06,0s0,0,0,0Zm-.38-2.64-.11.12h0l0,0h0s0,0,0,0h0s0,0,0,0h0l-.08.07L60.43,9l-.12.09s0,0,0,.05h0l.07,0L60.45,9l.12-.09.1-.06.12-.08.1-.07h0s0,0,.05,0h0l0,0,0,0Zm.66.08v0a.18.18,0,0,1,0,.06s0,0,0,0h0a.52.52,0,0,1-.15.13l-.06,0h0s0,0-.07.06l0,0a.08.08,0,0,0-.07,0s0,0-.06.05l0,0h0a1.29,1.29,0,0,1-.17.15l-.12.1a.36.36,0,0,0,.15-.08l.06-.06h0l0,0,0,0,0,0h0s0,0,0,0l0,0h0s0,0,0,0,0,0,0,0h0s0,0,0,0h.05V9s0,0,.05,0a.31.31,0,0,1,.15-.12q.09,0,.09-.06h0l0,0,.11,0,0,0,0,0h-.55v0s0,.06-.11.12-.17.12-.26.2l-.3.22-.22.17h0a.43.43,0,0,1,.12-.11l.07,0v0a.27.27,0,0,0,.11-.05s0,0,0,0h0a.3.3,0,0,0,.16,0,.16.16,0,0,0,.07-.07.07.07,0,0,0,0-.06,0,0,0,0,1,0,0h0l0,0,.09-.07.08-.06s0,0,0,0l.06,0,0,0h0l.09,0,.08,0,0,0S61.54,8.7,61.54,8.72Zm-1.13,3.64h0l.05,0,0,0h0Zm0-3.63a.09.09,0,0,1,.06,0s0,0,.05,0h-.09v0l0,0s0,0,0,0Zm.09,2.55s0,0,0,.05l0,0s0,0,0,0,0,0,.06-.05a.07.07,0,0,0,0,0Zm.19,1-.07.05-.06,0h.13c.06,0,.09,0,.09-.1l0,0,0,0s0,0,0,0l-.05.06Zm.71-3.18-.2.12s0,0,0,0h0l-.09.05L61,9.4l0,0h0l0,0,0,0,0,0,0,0h0a.08.08,0,0,1,0-.07l.09,0,.08,0s0,0,0,0a.49.49,0,0,0,.16-.07.23.23,0,0,0,0,0v0h0l.13-.11.05,0s0,0,0,0L61.57,9l0,0V9h0L61.54,9Zm-.59.68h.09a.06.06,0,0,0,.05,0l0,0s0,0,0,0,0,0,0,0S60.86,9.76,60.85,9.79Zm1.27,1.49v0s0,0,0,0h0l-.15.07a.17.17,0,0,0-.06.06l0,0s0,0,0,0h0s0,0-.07,0l-.09.08-.1.09-.05,0a2.21,2.21,0,0,1-.26.24.39.39,0,0,1-.11.08h0v0s0,0,0,0a1.35,1.35,0,0,1,.25-.25l.09,0h0s0,0,0-.07a.58.58,0,0,1,.12-.1l.12-.08h0L62,11.5l.11-.08.08-.06.07-.07Zm-.93,1.1h.16l0,0s0,0,0,0v-.1l-.09.08A.27.27,0,0,0,61.19,12.38Zm0-2.59h0a0,0,0,0,0,0,0s.05,0,.05,0l0,0a0,0,0,0,1,0,0S61.2,9.78,61.2,9.79Zm.74-.8-.14.13a.09.09,0,0,1-.06,0l0,0s0,0-.05,0h0a.24.24,0,0,0-.13,0l-.11.12a.26.26,0,0,0-.07.1h0a.06.06,0,0,0,0,0l.06,0,.06,0s0,0,0,0l.11-.07.06-.06.06-.07.12-.07A.24.24,0,0,1,61.93,9S62,9,62,9h-.05Zm-.28,2.36-.06.05-.11.09-.11.1-.05.06h0a1.83,1.83,0,0,1,.25-.22.7.7,0,0,1,.14-.08l.07,0s0,0,0,0h-.11l-.06,0,0,0Zm1.12-2.7-.09,0-.14.1-.18.14h0s0,0,0,0h0a.15.15,0,0,0-.08,0l0,.05h0s0,0,0,0,0,0,0,0-.06,0-.11.07a.19.19,0,0,0-.06.07h0a.09.09,0,0,1,0,0l0,0h0l-.08,0-.09.09-.07.07,0,.05h0l0,0h0l0,0h.05l.06-.06.1-.07h0s0,0,0,0,.05,0,0,0h0a1.78,1.78,0,0,1,.14-.14l.07,0h0s0,0,0,0L62.37,9,62.45,9h0l0,0s0,0,0,0h0l.07-.06.06-.06h0l.09-.06s.08-.06.08-.08ZM61.6,12.38h0s0,0,0-.05h0S61.61,12.36,61.6,12.38Zm0-2.59h.2s.06,0,.06,0a.08.08,0,0,1,0-.08,0,0,0,0,1,0,0v0s0,0,0,0a.31.31,0,0,1-.11.08A.28.28,0,0,0,61.61,9.79Zm.84,1.61-.08,0,0,0h0a.2.2,0,0,1-.07.11l-.17.16-.17.14-.08,0a.05.05,0,0,1,0,.05s-.05,0-.05,0a1.41,1.41,0,0,1,.21-.16l.23-.2.2-.16q.09-.07.09-.09a0,0,0,0,0,0,0Zm-.5,1H62v0h0l0,0Zm0-3.64a.18.18,0,0,1,.07-.05s.06,0,.07,0H62a.06.06,0,0,1,0,0A0,0,0,0,0,62,8.74Zm.21.91a.41.41,0,0,1-.14.08.1.1,0,0,0-.08.06h.31s0,0,0,0a.08.08,0,0,1,0-.06v0a0,0,0,0,0,0,0v0h0ZM62.14,12a.16.16,0,0,0,.11-.05l0,0h0v0h0s0,0,0,0,0,0,0,0,0,0,.07,0h0v-.06a0,0,0,0,0,0,0l-.14.14Zm1-3.28,0,0L63,8.82l-.09,0,0,0-.32.21a1.29,1.29,0,0,0-.32.29h0a.24.24,0,0,1,.09-.08l.08-.06.1-.09.08-.05a.09.09,0,0,1,.06,0L62.84,9l.06-.06,0,0,0,0a.57.57,0,0,1,.16-.11c.06,0,.09,0,.09-.07h0A.11.11,0,0,0,63.13,8.72Zm-.76,3.64h-.06s-.05,0-.05,0h.13a.06.06,0,0,0,.07-.07.06.06,0,0,0-.05,0S62.39,12.36,62.37,12.36Zm0-3.71v.06a0,0,0,0,1,.05,0,.08.08,0,0,0,0,0h-.09Zm0,3.48.05,0a0,0,0,0,0,0,0l-.06,0Zm.14-2.4a0,0,0,0,1,0,0s0,0,0,0h.15s0,0,0,0a0,0,0,0,1,0,0s0,0,0,0S62.54,9.73,62.51,9.73Zm1-1-.07,0,0,0-.15.13L63.2,9s0,0-.05,0a.19.19,0,0,0-.1.05l-.1.09-.08.09h0l-.07.07s0,0,0,0l0,0h0a.14.14,0,0,0,.09-.05s0,0,0,0,.09,0,.11,0,0,0,0,0,0,0,0,0,0,0,0,0a.7.7,0,0,0,.2-.12.38.38,0,0,0,.09-.09l0-.05a0,0,0,0,1,.05,0l.07,0,0,0,0,0,0,0h-.07Zm-.43.85q-.22.11-.24.15s0,0,0,0h.42s.05,0,.05,0h-.05a.19.19,0,0,1-.1,0s-.06,0-.06-.08v0ZM63.6,9h0c-.07,0-.12,0-.14.08s0,.08-.08.08a3,3,0,0,1-.26.23L63,9.44h0v0h0a.7.7,0,0,1,.18-.13l.05,0h0s0,0,0,0h0l0,0v0h0l0,0s0,0,0,0h0a.66.66,0,0,1,.2-.11.18.18,0,0,0,.09-.18l0,0Zm0,.34-.12.09s-.06,0-.06.06h0l.09-.08.08-.06h.11a0,0,0,0,1,0-.05.05.05,0,0,0,0,0,.08.08,0,0,1,0,0Z"/><path class="cls-1" d="M67.49,7.89h0s0,0,0,.09a1.27,1.27,0,0,1,0,.2c0,.08,0,.15,0,.2s0,.09,0,.09H68.7l.67,0a.11.11,0,0,0,0-.08s0,0,.06,0,0,0,.06,0a.43.43,0,0,1,0,0s0,0,0,.06a.1.1,0,0,0,.07,0h.27s.07,0,.07.05,0,0-.08.06h-.25s0,0,0,0,0,0,0,0V9.8H70c.06,0,.08,0,.09.06s0,.07-.13.07H68.69a.28.28,0,0,1-.15,0l-.12,0-.36,0H67.7c0,.45,0,.89,0,1.34v1.35a1,1,0,0,1,0,.18c0,.06,0,.12,0,.19a1.23,1.23,0,0,0,0,.19,1.09,1.09,0,0,1,0,.18v.36s0,0,0,0,0,0,0,0h.13s0,0-.09.06l-.17.05H66.53s0,0,0,0h0a.2.2,0,0,1-.09-.05.28.28,0,0,0,0,.09v.36a1.26,1.26,0,0,1,0,.3c0,.08,0,.14,0,.17a.19.19,0,0,1,0-.12.49.49,0,0,1,0-.12v-.1s0-.08,0-.12,0-.08,0-.13v-.13a1.05,1.05,0,0,0,0-.13c0-.06,0-.09,0-.09h-.07s0,0,0,0,0,0,0,0h0l0,0h0V9.85a.08.08,0,0,0-.06,0h-.21s0,0,0,0,0,0-.05,0h-1.2V10s0,0,0,0a.05.05,0,0,0,0,0s-.06,0-.06-.06l0-.1h-.31c-.09,0-.14,0-.14-.07s0,0,.07,0h.26s0-.06,0-.11,0-.06,0-.09V9.5a.51.51,0,0,0,0-.13l0-.07a.1.1,0,0,1,0-.07.14.14,0,0,0,0-.07s0,0,0-.06a.13.13,0,0,1,0-.06V9s0,0,0,0V9s0,0,0,.1v.09s0,.1,0,.21l0,.27a.17.17,0,0,1-.06-.11c0-.06,0-.12,0-.17a2.29,2.29,0,0,1,0-.25,2.26,2.26,0,0,0,0-.26.08.08,0,0,0-.07-.09h-.31a.07.07,0,0,1-.08-.08l0,0s0,0,0,0h.35s0,0,0,0v0a0,0,0,0,1,0,0s0,0,0,0a.09.09,0,0,0,0,.07s0,0,0,0a.43.43,0,0,0,0-.05v0a.05.05,0,0,1,.06-.06s.07,0,.08.09h1.64l.63,0,.47,0,.18,0V8.38l0-.19a1.09,1.09,0,0,0,0-.17.54.54,0,0,0,0-.11Zm-3.11,1a.08.08,0,0,1,0,0,.43.43,0,0,1,0,0s0-.06,0-.06v.09A.08.08,0,0,0,64.38,8.89Zm2-.09a.68.68,0,0,0-.17.08l-.08,0,0,0h0A.12.12,0,0,0,66,9l0,0h0l-.1.07-.06,0h0l-.14.08,0,0h0l-.05,0a.14.14,0,0,0-.12.06l0,0,.15-.08.05,0h.07q.15,0,.18-.06l0-.07A1.13,1.13,0,0,1,66,9l.12,0,.1,0a.35.35,0,0,0,.13-.1l.07,0s0,0,0,0A.18.18,0,0,0,66.38,8.8Zm-.73,0a0,0,0,0,1,0,0,0,0,0,0,0,0,0h0s-.06,0-.06,0Zm.58.33,0,0s0,0,0,0h0A.85.85,0,0,1,66,9.3a1.07,1.07,0,0,0-.21.13.18.18,0,0,0,.14,0s0,0,0,0,.17,0,.21-.07l0,0a.15.15,0,0,0,.1,0s0,0,0,0,0,0,0,0ZM66,8.77h0l0,0v0s0,0,0,0l0,0Zm.12.85h0s0,0,0,0h0A0,0,0,0,0,66.14,9.62Zm.29-.55h0V9s0,0,0,0,0,0,0,0A0,0,0,0,0,66.43,9.07Zm.38-.3a.09.09,0,0,1-.06,0s0,0-.06,0h0l-.06,0-.07,0a.19.19,0,0,1-.07.06V9l0,0,0,0,0,0h0a.35.35,0,0,1,.1-.09l0,0,0,0,.07,0,.07,0a.05.05,0,0,0,0,0Zm-.26,4.92h.19a.18.18,0,0,0-.07-.05l-.08,0,0,0s0,0,0,0a.28.28,0,0,0,0,.09A.22.22,0,0,0,66.55,13.69Zm0-.68a.1.1,0,0,1,0,0l0,0h0l-.06,0s0,0,0,0Zm.8-4.26-.14.05a.31.31,0,0,0-.12.09H67s0,0,0,0h0l0,0h0l-.06,0a.27.27,0,0,0-.14.08l-.07,0h0l0,0,0,0h0l0,0,.05,0,0,0h0v0h0l.06,0,.1,0L67,9h.08a.1.1,0,0,1,0,0l.06,0,.06,0a.27.27,0,0,0,.13,0s.06-.05.06-.06l0,0h-.06Zm0,.23a1,1,0,0,0-.23.12l-.24.13h0a.22.22,0,0,0-.14,0,.17.17,0,0,0-.06.06.08.08,0,0,0,0,0s0,0,0,0h0l-.07,0s-.06,0-.06.07h0a.46.46,0,0,0,.27-.08c.08-.06.1-.08.08-.08h0l.1-.07h.07s0,0,0,0h0s0,0,0,0h0s0,0,0,0h0v0h0s0,0,0,0l0,0s0,0,0,0h0l.07,0a.06.06,0,0,0,0-.06s0,0,0,0h0Zm-.83.89s0,0,0,0v0h0s0,0,0,0Zm.11.48h0l0,0-.06,0s0,0,0,.06l0,0s0,0,0,0l0,0h0l0,0,0,0h0s0,0,0,0Zm0,1.06a.19.19,0,0,0-.12,0s-.06.05-.06.06,0,0,0,0l.07-.07Zm.49.88a.53.53,0,0,1-.2.15l-.06,0s0,0-.08,0l0,.05h0l-.13.09,0,0h0l.34-.18.34-.17a.17.17,0,0,0,0-.12l0,0A.05.05,0,0,1,67.23,12.29Zm0,.4-.28.22a.15.15,0,0,0-.06.07l0,0-.16.09s0,0,0,0,0,0,0,0h0a.44.44,0,0,1,.16-.1c.07,0,.11,0,.12-.07L67,13l.09-.05.08,0,0,0,0,0h0a.08.08,0,0,0,0-.05.41.41,0,0,0,0-.12l0,0Zm-.5-2.8s0,0,0,0l0,0s-.06,0-.06.05Zm.5.92s0,0-.06.06l-.06,0a.46.46,0,0,1-.21.17c-.06,0-.09,0-.09.06h0a.05.05,0,0,1,0,0l.06,0,.06,0h0a.22.22,0,0,1,.09-.07l.13-.07.11-.06,0,0v-.06l-.06,0Zm0-.3-.09.07-.13.08-.12.08s0,0,0,0a0,0,0,0,0,0,0,.4.4,0,0,1,.19-.11l.09,0a.14.14,0,0,1,.08-.05l.07,0a.09.09,0,0,0,.06,0s0,0,0-.09l-.07,0Zm0,.73a.8.8,0,0,0-.29.19c0,.07-.07.1-.07.08h0a.4.4,0,0,1,.12-.1l.16-.09.13-.06s.05,0,.05-.06v-.05l-.06,0A.1.1,0,0,0,67.26,11.24Zm0-1.39h0l-.07,0-.1,0A.22.22,0,0,0,67,10a.08.08,0,0,0,0,.07h0a.37.37,0,0,1,.16-.09c.07,0,.09,0,0,0a.51.51,0,0,1,.17-.07h0s0,0,0,0l0,0h-.07Zm-.3.54h0c.05-.06.09-.08.12-.08h.06s0,0,0,0h0v0h0s0,0,0,0,0,0,0,0h0l0,0,.06,0v0s0,0,0,0l-.2.15Zm.3,1.17s0,0-.05,0,0,0,0,0h0l0,0,0,0h0l0,0,0,0,0,0,0,0a.13.13,0,0,0,.11-.06s.05-.06.05-.05h0s0,0,0,0h0l.07-.05s0,0,0-.06v0A.24.24,0,0,0,67.26,11.56Zm-.09-2.19a.26.26,0,0,1-.12.07s0,0-.08,0a1.9,1.9,0,0,0,.29-.1c.07,0,.11-.07.11-.1l-.11,0Zm.06,2.56a.12.12,0,0,0-.09,0l0,.07s0,0,0,.05,0,0,0,0l0,0s0,0,0,0h0a.11.11,0,0,1,.07-.06l.12-.05.11-.06a.13.13,0,0,0,0-.11l-.07,0A.05.05,0,0,1,67.23,11.93Zm.06,1.16h0l-.12.08a.15.15,0,0,0-.06,0h0a0,0,0,0,0,0,0h0l0,0,0,0h0s0,0,0,0h.06a.11.11,0,0,0,.08-.07h.09a.08.08,0,0,0,0,0h-.05Zm0-3.53h0S67.26,9.55,67.26,9.56Zm.09,3.77h0s0,0,0,0l0,0a0,0,0,0,1,0,0S67.35,13.32,67.35,13.33Zm0,.36h.05s0,0,0,0a0,0,0,0,1,0,0s0,0,0,0Zm.52-5a.42.42,0,0,1-.14.11l-.1,0H67.6s0,0,0,.06h0s.06,0,.06,0h.07s0,0,0,0h0l.07,0h.08s0,0,0,0h0s0,0,0,0,0,0,0,0H67.9Zm-.24.47.14-.08a.06.06,0,0,1,0,0h0l0,0,0,0h0l0,0,.08,0h0l0,0,.21-.08.06,0,0,0,.16-.07s0,0,0,0a.06.06,0,0,1,0,0h-.09s0,0,0,0,0,0,0,0h0a.85.85,0,0,1-.25.13L68,9h0s0,0,0,0h0l0,0h0l-.07.05,0,0h0l-.08,0s0,0,0,0,0,0,0,0l0,0Zm.15.17v0h.1a.46.46,0,0,1,.15-.13h.06l0,0s0,0,0,0,0,0,0,0l-.06.05,0,0h0l-.14.07-.15.07h0l0,0Zm.79-.14,0,0-.27.11-.1,0a.13.13,0,0,1-.08,0l-.07,0a1.1,1.1,0,0,0,.24,0l.07,0s0,0,0,0h0a1.12,1.12,0,0,0,.24-.11l0,0h0Zm.07-.29s0,0,0,0h0l0,0Zm.46-.24a.19.19,0,0,1-.08,0l-.13.07-.12.06,0,0h0l.14-.05.18-.06.15-.06.07,0Zm-.06.79s0,0,0,0h.13l0,0h-.05Zm0-.23v0h0a.62.62,0,0,0,.19-.07c.06,0,.1-.06.1-.07l-.14,0A.35.35,0,0,1,69.11,9.25Zm.11.25h.08l.06.05,0,0,0,0h.06a.05.05,0,0,1,0,0s0-.07,0-.13,0-.09,0-.09l-.08.06Zm.12.21a.08.08,0,0,1,.08.07h0a.39.39,0,0,0,0-.14A.06.06,0,0,0,69.34,9.71Z"/><path class="cls-1" d="M76.09,8s0,0,0,0a.45.45,0,0,1,0,.12,1.62,1.62,0,0,1,0,.21,1.41,1.41,0,0,0,0,.18l0,0h.69v0H77v0h.25a.93.93,0,0,1,.09-.26s0-.07.07-.07v.07a.45.45,0,0,1,0,.12l0,.13h.23a.25.25,0,0,1,.13,0s0,.07-.11.07H77.4a.34.34,0,0,0-.05.14l0,.24a2.51,2.51,0,0,1,0,.27,1.37,1.37,0,0,1,0,.25h0v.06s0,0,0,0h0v0a.4.4,0,0,1,0,.15.41.41,0,0,0,0,.16v0h0a2.21,2.21,0,0,0,0,.25c0,.09,0,.17,0,.24a.55.55,0,0,0,0,.16s0,.06,0,.05h0a.15.15,0,0,0,0,.07s0,.08,0,.13,0,0,0,.06a.15.15,0,0,0,0,.1,1.21,1.21,0,0,0,0,.18c0,.07,0,.12,0,.17a.44.44,0,0,0,0,.09s0,.07,0,.11l0,.13v0l0,.08a.12.12,0,0,0,0,.07v.06a1,1,0,0,1,0,.27.84.84,0,0,0,0,.27.29.29,0,0,1,0,.09s0,.07,0,.14h0a.69.69,0,0,0,0,.13.27.27,0,0,1,0,.12l0,0s0,0,0,0a0,0,0,0,0,0,0,0,0,0,0,0,0,0v0a.39.39,0,0,1,0,.13.28.28,0,0,1-.05.08l-.06,0,0,0s0,.08-.1.12-.12.08-.13.11l.32,0,.29,0s-.05,0-.11.05l-.2,0H74.33s0,0,0,0a0,0,0,0,0,0-.05s0,0,.08,0h.26a.12.12,0,0,0,0-.07l-.06-.07h0a.19.19,0,0,0-.08-.14l-.08-.08a.13.13,0,0,0,0-.07l-.06-.07v0l0,0,0-.09a.15.15,0,0,1-.06-.13c0-.06,0-.07,0-.05a2.33,2.33,0,0,0-.18-.57,3.31,3.31,0,0,1-.19-.61s0,0-.06.08a.85.85,0,0,0-.06.17c0,.06,0,.12,0,.16v.06s0,0,0,.05,0,.1,0,.17,0,.13,0,.18,0,.09,0,.1a2,2,0,0,0-.09.29,1.7,1.7,0,0,1-.14.39s0,0,0,0l0,0v0h0v0h0a.64.64,0,0,0,0,.07,0,0,0,0,0,0,0l0,.05a.17.17,0,0,1-.07.08.18.18,0,0,0-.07.08h0a.32.32,0,0,1,.14,0l0,0v0h0s0,0-.06,0a.53.53,0,0,1-.23,0h-2a.13.13,0,0,1-.09,0,.05.05,0,0,1,0-.06c0-.05,0-.07.14-.07h.25s0,0,0,0,0-.06-.06-.1l-.07-.08L71,13.35l-.08-.16L70.87,13a.49.49,0,0,1,0-.15v0a.16.16,0,0,1,0-.06.29.29,0,0,0,0-.09.44.44,0,0,1,0-.13.42.42,0,0,1,0-.17.84.84,0,0,0,0-.17v0h0a.2.2,0,0,1,0-.08s0-.07,0-.1v-.08s0,0,0,0-.07-.28-.1-.45a2.81,2.81,0,0,0-.11-.44h0s0,0,0-.07l0-.12s0-.08,0-.12a.64.64,0,0,0,0-.09.58.58,0,0,0,0-.1l0-.15,0-.14a.81.81,0,0,0,0-.11h0V10s0,0,0,0v0a1,1,0,0,0,0-.12l0-.17s0-.12,0-.19V9.36l0-.12h0a1,1,0,0,0-.08-.4.48.48,0,0,0-.11-.19s0,0,0-.05,0-.06,0-.07h.72l.35,0h.38a0,0,0,0,0,0,0,.54.54,0,0,1,0-.08.49.49,0,0,1,0-.12V8.2s0,0,0,0,0,0,0,.06l0,.12a.61.61,0,0,0,0,.12.12.12,0,0,0,.11.05h.2a.48.48,0,0,1,.17.05s0,0-.07,0l-.15,0-.14,0h-.07v0h0l.12.53c0,.18.08.4.12.67a1.06,1.06,0,0,0,0,.24,2.56,2.56,0,0,0,.05.27,2.25,2.25,0,0,1,0,.22.49.49,0,0,0,0,.12.28.28,0,0,0,0,.09.11.11,0,0,1,0,.05h0v0a.82.82,0,0,0,0,.26.68.68,0,0,1,0,.21l.06.31.06.31a.24.24,0,0,0,.09-.16.2.2,0,0,1,0-.11,1.32,1.32,0,0,1,.07-.42,3.47,3.47,0,0,0,.13-.46,3.82,3.82,0,0,0,.08-.39,2.09,2.09,0,0,1,.07-.39l0-.16h0v0c0-.1.07-.2.1-.3s0-.2.06-.28a1,1,0,0,0,0-.18s0,0,0,0a.34.34,0,0,0,0-.12l0-.17,0-.13s0-.06,0-.06l0,0h-.12l0,0c0-.05,0-.08.12-.08H73a.26.26,0,0,0,.08-.13.69.69,0,0,0,0-.13s0-.06,0-.08,0,0,.08-.05v.09a.61.61,0,0,1,0,.14.8.8,0,0,0,0,.15h1.67l.06,0a.05.05,0,0,1,0,.05.37.37,0,0,1-.2,0h-.27a.79.79,0,0,0,0,.15c0,.08,0,.16.08.26l.09.28a1.31,1.31,0,0,1,0,.22h0v0a.62.62,0,0,0,0,.25,1.44,1.44,0,0,1,.08.25,3.37,3.37,0,0,0,.1.34,3,3,0,0,1,.11.32h0a.05.05,0,0,1,0,0,.06.06,0,0,0,0,.05v0h0a.4.4,0,0,0,0,.13.31.31,0,0,1,0,.08h0l0,.06s0,0,0,0h0a.3.3,0,0,0,0,.13.49.49,0,0,1,.05.18h0s0,0,0,0,0,.06,0,.15,0,.17.07.22h0a.05.05,0,0,1,0,0V12l0,0a0,0,0,0,0,0,0h0v-.05l0,0s0,0,0-.07a.61.61,0,0,1,0-.17,1,1,0,0,1,.08-.21s0,0,0,0v0a.64.64,0,0,1,0-.15c0-.08,0-.14,0-.2h0a2.61,2.61,0,0,1,.08-.6c0-.21.1-.44.14-.69,0,0,0,0,0,0a.2.2,0,0,0,0-.05V9.53c0-.14,0-.28,0-.43s.05-.3.08-.44h-.25s-.06,0-.06-.05,0,0,.06,0a.18.18,0,0,1,.09,0h.12a.1.1,0,0,0,.09,0s0-.08,0-.16h0v0a.92.92,0,0,1,0-.19A.62.62,0,0,1,76,8l0,0Zm-6,.76,0,0a.07.07,0,0,0,0,0h-.07a.07.07,0,0,1,0,0A0,0,0,0,0,70.11,8.72Zm.08.26a0,0,0,0,1,0,0s0,0,0,0,0,0,0,0S70.16,9,70.19,9Zm0,0,0,0h0s0,0,0,0S70.21,9,70.22,9Zm0,.19h0s0,0,0,0l.06,0,.06-.07s-.06,0-.07,0A.09.09,0,0,1,70.24,9.14Zm.3,0a.56.56,0,0,0-.24.15.26.26,0,0,0,0,.07s0,0,0,0l.2-.17a.8.8,0,0,0,.13-.13c.05,0,.07-.07.07-.09h0l-.08.08Zm-.17.44s0,0,0,0v0h0l.07,0,.1-.12.14-.17-.15.13A1.85,1.85,0,0,0,70.37,9.63Zm.2.1-.09.09-.1.07s0,0,0,.08a.08.08,0,0,0,0,.06.27.27,0,0,1,.09-.12h0l0,0,0,0,0,0h0l.1-.11c0-.05.06-.08.06-.1h0l-.09.09Zm-.09-.9s0,0,0,.05h0v0l0,0,0,0h0l.08-.06,0,0h0l.07-.06a.35.35,0,0,0-.19,0Zm.26,1.09a.81.81,0,0,1-.19.21.2.2,0,0,0-.09.13.2.2,0,0,1,0,.09l0,0,0,0v0l0,0,0-.05,0,0s0,0,0,0a.08.08,0,0,1,0,0l0-.06,0,0s0,0,0,0a.42.42,0,0,1,.07-.12l.06,0,0,0s0,0,0,0l0,0,0,0h0l-.12.13Zm-.14.57a.08.08,0,0,1,0,0s0,0,0,0v0s0,0,0,0a.75.75,0,0,1,0-.16l.05,0h0v-.05l.09-.12,0-.06,0,0s0,0,0,0v0C71,10.08,71,10,71,10h0a2.52,2.52,0,0,1-.21.25Zm0,.27a.24.24,0,0,1,0,.09.06.06,0,0,0,0,.06.36.36,0,0,0,.15-.24c0-.06,0-.08,0-.05a.36.36,0,0,0-.08.09.1.1,0,0,1-.1.06Zm.5.83a.44.44,0,0,1-.16.19c-.07,0-.1.08-.1.13a.09.09,0,0,0,0,.05.84.84,0,0,1,.18-.29c.08-.07.12-.11.12-.13h0s0,0,0,0ZM71,8.7a.12.12,0,0,0,.07,0H71v0l0,0v0h0A.18.18,0,0,1,71,8.7Zm.22,3.19a1.06,1.06,0,0,1-.18.21.37.37,0,0,0-.11.2h0s0,0,0-.06l0,0s0,0,0-.07l.06-.06h0a.8.8,0,0,1,.15-.19s0,0,0,0h0l0,0Zm-.23.75,0,0,0,0h0l0,0s0,0,0,0Zm.32-3.51a.53.53,0,0,0-.12.14l-.11.12h0l.08,0,.1-.07a.71.71,0,0,0,.09-.07l0,0v0s0,0,0,0a.08.08,0,0,1,0,0h0l0,0S71.32,9.11,71.31,9.13Zm-.07,3.92,0,0,0,.05s0,0,0,0a.16.16,0,0,1,.06-.08.14.14,0,0,0,.05-.09h0s0,0,0,0Zm-.08-4A.59.59,0,0,0,71.27,9s.07,0,.07-.06a.06.06,0,0,0,0-.06.86.86,0,0,1-.07.1A.44.44,0,0,0,71.16,9Zm.14.48,0,0,0,0v0l0,0s0,0,0,0h0l.09-.07a.15.15,0,0,1,.11,0l.07,0a.31.31,0,0,1,0-.11.12.12,0,0,0,0-.1.14.14,0,0,1-.05.08Zm-.11-.77.06,0,.06,0s0,0-.06,0h-.06v0s0,0,0,0h0Zm.67,4.87c-.1,0-.14,0-.14-.12a.08.08,0,0,1,0,0v0a.57.57,0,0,1-.11.1.36.36,0,0,1-.13.05.08.08,0,0,1-.07,0s0,0,0-.06v0l0,0a0,0,0,0,0,0,0,.5.5,0,0,0,.12.11l.07,0h.07a.26.26,0,0,0,.14,0h.23s0,0,0,0h0s0,0,0,0v0h0s0,0-.06,0Zm-.43-3.93a.35.35,0,0,1-.07.09l0,.08.1,0,.07-.05v0s0,0,0,0v0h0S71.44,9.68,71.43,9.68Zm0,.3a.35.35,0,0,1-.09.12s0,0,0,.05h0l.11-.07s.07,0,.07-.05v0a.09.09,0,0,1,0-.05v0S71.48,9.94,71.46,10Zm.27,1.55a.53.53,0,0,1-.12.18l-.06,0a.76.76,0,0,1-.1.15l0,.06.19-.18.13-.13a.41.41,0,0,0,.08-.1.35.35,0,0,1,0-.06s0,0,0,0l0,0Zm-.26-1.18.07,0h0s0-.08,0-.09a.07.07,0,0,1,0,0A.06.06,0,0,0,71.47,10.35Zm0,.28s0,0,0,0h.08v0a0,0,0,0,1,0,0v0h0a.16.16,0,0,1,0,.07S71.5,10.6,71.48,10.63Zm.07.26-.06.08h0a.16.16,0,0,1,.07-.07.08.08,0,0,0,.06-.08l0,0a.08.08,0,0,1,0,0S71.56,10.88,71.55,10.89Zm.38,1.6a.19.19,0,0,0-.09,0,.13.13,0,0,0,0,.07.15.15,0,0,0,0,.06h0v0c-.13.13-.19.2-.19.22h0l0,0h0v0l0,0,0,.05s0,0,0,0,0,0,0,0l.07-.08.12-.09h0l.11-.11.07-.08,0,0h0s0,0,0-.07a.18.18,0,0,0,0-.06s0,0,0,0l0,0A0,0,0,0,1,71.93,12.49Zm-.28-1.28-.07.08v0h0s.06,0,.09-.07a.31.31,0,0,0,0-.09h0Zm.15.66v0l0,0h0s0,0,0,0,0,0,0,0l.07-.06a.18.18,0,0,1,.07,0,.09.09,0,0,0,0-.07h0s0,0,0,0Zm0,.36s0,0,0,.07,0,0,0,0,0,0,0,0a.38.38,0,0,1,.11-.11.1.1,0,0,0,.06-.09s0,0,0,0a.05.05,0,0,1,0,0A.05.05,0,0,0,71.83,12.23Zm0,.79h0v0s0,0,0,0L72,13c.06,0,.08-.07.08-.08v0a.05.05,0,0,0,0,0,.83.83,0,0,0-.08.12A.52.52,0,0,1,71.87,13Zm.2.21,0,0s0,0,0,0l0,0v0a.2.2,0,0,1,.1-.07.08.08,0,0,0,.06-.08v0a0,0,0,0,1,0,0,.05.05,0,0,0,0,0A.1.1,0,0,1,72.07,13.23Zm.06.41h.14s0,0,0-.07,0-.05,0-.05l0,.05A.18.18,0,0,0,72.13,13.64Zm.7-1.53a.46.46,0,0,1-.07.07l-.05,0h0c-.08.08-.12.12-.14.12s0,0,0,0h0s0,0,0,0l0,0-.09.06s-.06,0-.06,0,0,0,0,.09,0,.08,0,.09a1.45,1.45,0,0,1,.18-.21,2.72,2.72,0,0,1,.24-.24,1.7,1.7,0,0,1,.2-.19L73,12h0l-.08.08ZM72.42,12h-.07v0a.07.07,0,0,1,0,0,.14.14,0,0,0,0,.07h0a.51.51,0,0,1,.15-.14c.07,0,.1-.09.1-.12h0a.11.11,0,0,1-.07.06Zm.41-.78-.13.11a.35.35,0,0,0-.14.11.14.14,0,0,1,0,.09.24.24,0,0,0,.11-.06l.13-.14.13-.14s0-.05,0-.05l0,0v0h0a.3.3,0,0,1-.08.08Zm.61-.77a4.68,4.68,0,0,0-.49.32c-.11.1-.16.14-.13.14a.13.13,0,0,0-.08,0,.46.46,0,0,0-.07.07l0,.05s0,0,0,0h0a0,0,0,0,1,0,0,0,0,0,0,0,0,0l0,0,.28-.25.16-.14.07-.06h0l.13-.1a1.18,1.18,0,0,0,.18-.13Zm0,1.32-.08.1-.17.17-.27.23,0,.06-.09.09a.38.38,0,0,0-.09.09s0,.05,0,.06h0l.1-.09.11-.09h0l.07,0,.14-.09a.6.6,0,0,1,.15-.09.19.19,0,0,1,.11,0h0l0-.17a1.13,1.13,0,0,0,0-.18S73.45,11.8,73.44,11.8Zm-.76-1.09a0,0,0,0,1,0,0l0,0h0l.16-.16q.09-.08.09-.09h0l-.1.09ZM73,12.78s.08-.07.1-.07h0c.06,0,.09,0,.09.08s0,.05-.06.1L73,13a1.29,1.29,0,0,1-.17.16l-.12.12h0a.52.52,0,0,1,.11-.1l.08-.06h0s0,0,0,0h0s0,0,0,0h.1a2.67,2.67,0,0,1,.14-.36.88.88,0,0,0,.08-.33v0l-.2.18-.21.18h0a0,0,0,0,1,0,0Zm-.23.76h0l.06,0,.08-.06.05,0h0l0,0,0,0h0v0l-.13.1A.4.4,0,0,0,72.72,13.54Zm.84-2.69a.52.52,0,0,0-.17.12s0,.06,0,0l-.16.16s0,.05-.07.05,0,0,0,0l-.1.09-.12.11a.26.26,0,0,0-.09.1h0a.17.17,0,0,1,.13-.12s.06,0,0,0l.12-.11,0,0h0l.05,0a.25.25,0,0,1,.12-.07s.06,0,.06,0h0a.48.48,0,0,1,.12-.08c.06,0,.09-.06.09-.08h0s0,0,0,0a.19.19,0,0,0,0-.08s0,0,0,0Zm-.41-1.14h0l-.06,0,0,0a.11.11,0,0,0,0,.06.2.2,0,0,0-.09.09l0,.05A.23.23,0,0,0,73,9.91l.09-.09.06-.09s0,0,0,0l0,0,0,0s0,0,0,0l0,0Zm.38,1.59s0,0-.06.08l-.13.11-.13.1,0,0h0a.64.64,0,0,0-.12.13.26.26,0,0,1-.11.07v0a.13.13,0,0,0,.07,0l.1-.07a.92.92,0,0,0,.14-.11.63.63,0,0,0,.18-.11l.11-.09v0s0,0,0,0v0S73.54,11.3,73.53,11.3ZM73,9.59a.13.13,0,0,0,.1,0,.05.05,0,0,0,0-.05s0,0,0,0v0l-.07,0A.1.1,0,0,0,73,9.59Zm.22-.94,0,0,0,0h0S73.16,8.65,73.17,8.65Zm.16-.05a.21.21,0,0,1-.06.08s0,0,0,.05h0l.1-.07.1-.07Zm0,1a.14.14,0,0,0,.08-.05l0,0h0l0,0v0l-.09.06A.24.24,0,0,0,73.33,9.56Zm.18.68h0l.19-.09c.07,0,.11-.08.11-.12l0,0-.14.12Zm.08-1.55s0,0,0,0l0,0h0s0,0,0,0l.07-.05.08,0,.06,0c-.07,0-.11,0-.12,0Zm.18,2.54s0,0,0,0,0,0,0,0h0S73.77,11.19,73.77,11.23Zm.12.21s0,0,0,0,0,0,0,0a.12.12,0,0,1,.06-.09l.06-.06h0l0,.05Zm.61-.21a1.09,1.09,0,0,0-.26.21l-.15.15-.07,0a.1.1,0,0,1-.08,0h0a.08.08,0,0,0,0,.05.09.09,0,0,1,0,0v0a.08.08,0,0,1,0,.06.16.16,0,0,0,0,.06,2.65,2.65,0,0,1,.14-.23s.07-.08.1-.09l.06,0s0,0,0,0a.09.09,0,0,1,0-.06l.07-.09.07-.07,0,0a1.08,1.08,0,0,0,.11-.11s0,0,0-.06h0l-.07.07A.6.6,0,0,0,74.5,11.23ZM74,8.65a0,0,0,0,0,0,0l0,0,0,0h0s0,0,0,0A0,0,0,0,1,74,8.65Zm.06.57a0,0,0,0,1,0,0v0s0,0,0,0,0,0,0,0Zm.06,2.8H74a.31.31,0,0,1,0,.08.33.33,0,0,0,0,.06L74.2,12a.59.59,0,0,0,.07-.1v0h0s0,0,0,0A.86.86,0,0,1,74.12,12Zm0-2.13a.15.15,0,0,0,0,.07s0,0,0,0l0-.06a.13.13,0,0,0,0-.06s0,0,0,0a.08.08,0,0,0,0,0Zm0-1a.05.05,0,0,0,0,0s0,0,0,0h0l0,0a.06.06,0,0,0,0,0Zm.07,1a.06.06,0,0,0,0,0v0a.08.08,0,0,0,0,0v0h0a.18.18,0,0,1,.06-.09.14.14,0,0,0,.05-.09h0S74.21,9.86,74.16,9.86Zm0,2.55,0,0s0,0,0,0l0,0a0,0,0,0,0,0,0Zm0-3.29a.07.07,0,0,1,0,0l0,0h0s0,0,0,.05a.06.06,0,0,0,0,0S74.2,9.12,74.21,9.12Zm.14.12a.9.9,0,0,1-.07.14.27.27,0,0,0,0,.16s0,0,0,0,.11-.21.13-.25l.06-.05s0,0,0,0,0,0,0,0a.14.14,0,0,0,0-.06l0,0Zm-.1,3.43s0,0,.06-.06a.15.15,0,0,0,0-.08h0a.13.13,0,0,1-.06.07s-.05,0-.05.06Zm0-3.81s0,0,0-.06a.32.32,0,0,0,0-.08,0,0,0,0,0,0,0A1,1,0,0,1,74.25,8.86Zm.07.2h.07a.19.19,0,0,1,0-.08.06.06,0,0,0,0-.06.15.15,0,0,1,0,.07A.15.15,0,0,0,74.32,9.06Zm.36,1.42-.09.09a.63.63,0,0,0-.12.1.93.93,0,0,0-.1.1s0,.05,0,.06h0a.15.15,0,0,1,0-.06l.09-.08.08,0s0,0,0,0l.07-.05a.18.18,0,0,1,.07,0h.07v0a.11.11,0,0,0,0-.06v-.07s0,0,0,0Zm-.34,2.4v0a.07.07,0,0,0,0,.06s0,0,0,0h0s0,0,0-.06a.18.18,0,0,0,0-.07,0,0,0,0,0,0,0l-.06.06A.19.19,0,0,1,74.34,12.88Zm.14-3.16v0l0,.06a.17.17,0,0,0,0,.07h0c0-.07.08-.11.13-.12a.13.13,0,0,0,0-.1s0,0,0,0Zm.11.47v.05h0s0,0-.06.08-.07.07-.07.09l.16-.1q.09-.06.09-.09s0,0,0,0,0,0,0,0Zm-.12,3a.37.37,0,0,0,.06.1.19.19,0,0,1,0-.08.19.19,0,0,0,0-.08h0A.25.25,0,0,1,74.47,13.17ZM74.55,10h.06v0s0,0,0,0l0,0A.05.05,0,0,1,74.55,10Zm0,.95.1,0a.18.18,0,0,1,.11,0c.07,0,.1,0,.1.1a.22.22,0,0,1,0,.1.41.41,0,0,0,0,.09h.14a.74.74,0,0,0,0-.12,1.36,1.36,0,0,1,0-.17,1.31,1.31,0,0,0,0-.15s0-.06,0-.06a.58.58,0,0,1-.11.15Zm.08,2.46,0,0v0h0l0,0s0,0,0,0l.12,0,.14,0,0,0h.11l0,0s0,0,0,0,0,0,0,0v0H75.1l0,0s0,0,0,0a0,0,0,0,1,0,0,.05.05,0,0,0,0,0,.12.12,0,0,1-.08.06h-.06a.1.1,0,0,1-.11-.11.06.06,0,0,1,0,0l-.08,0-.06,0s0,0,0,0l0,0Zm.28-2.09-.22.27s0,.06,0,.06h0l-.09.11a1.05,1.05,0,0,0,.22-.17l.07-.08.06-.06s0,0,.08,0a.32.32,0,0,0,0-.08s0-.06,0-.06a.06.06,0,0,1,0,0A.07.07,0,0,1,74.93,11.32Zm.09.32s0,0,0,0,0,.05,0,.06v0a.24.24,0,0,1,.09-.08s.08,0,.08-.07a.14.14,0,0,0,0-.06l0,0Zm.28.83-.15.15v0s0,.06-.08.1-.08.06-.08.07h0l0,0,0,0a0,0,0,0,0,0,0,.92.92,0,0,1,.18-.2.36.36,0,0,1,.12-.09l.08,0a.06.06,0,0,0,0-.05v0s0,0,0,0,0,0,0,0S75.31,12.46,75.3,12.47Zm-.19-.58c-.09.09-.14.16-.14.19h0L75.1,12l.09-.05s0,0,0,0,0,0,0,0l0,0Zm.09.32a.63.63,0,0,1-.14.17l0,0a.4.4,0,0,0,.12-.1l.08-.06h0a.12.12,0,0,0,0-.08l0,0s0,0,0,0Zm.2.93a.18.18,0,0,1-.05.07l-.06.06h0a.14.14,0,0,0,.11-.08l0,0Zm.13.24,0,0s0,0,0,0h0l0,0,.06,0s0-.07,0-.07h0Zm.55-1.64-.3.25-.07.07s0,0,0,0,0,0-.06,0l-.09.09a.17.17,0,0,0,0,.12h0l.36-.36.35-.36v0h0l-.08.07Zm-.35.78s0,0-.07.05-.06,0-.06,0a0,0,0,0,0,0,0h0s0,0,.07,0l.06-.07a.21.21,0,0,0,0-.06h0l0,0Zm0-.81,0,0a0,0,0,0,1,0,0h0s0,0,0,0l0,0v0a.15.15,0,0,1,.08-.08s0,0,0-.07h0s0,0,0,0Zm-.09,1.87,0,0h0v0Zm.8-3.23-.07,0-.07.06-.06.05h0l-.15.14-.15.13-.12.09-.06,0V11s0,0,0,0,0,0,0,0a.15.15,0,0,0,.08-.05l.12-.12.16-.17a.38.38,0,0,1,.09-.09l.12-.09a.45.45,0,0,0,.1-.09s0,0,0-.06h0S76.45,10.35,76.44,10.35Zm-.7,1s.05,0,.09-.06.06-.06.06-.08a.18.18,0,0,1-.08.07A.12.12,0,0,0,75.74,11.3Zm.05,2.29a.09.09,0,0,0,.08,0,0,0,0,0,1-.05,0s0,0,0,0v0A.2.2,0,0,0,75.79,13.59Zm0-3h0l0,0h0A.06.06,0,0,0,75.79,10.61Zm.29-.54-.17.11,0,.05v0h0v0a0,0,0,0,0,0,0s0,0,0,0l.06-.09.16-.15.17-.16.13-.12h0s0,0,0,0l-.09.07a.3.3,0,0,0-.08.08Zm-.2-.16a.08.08,0,0,0,0,.06s0,0,0,0,0,0,0,0h-.06Zm.05-.26a.05.05,0,0,0,0,0s0,0,0,0,0,0,0-.05l0,0h0s0,0,0,0a.05.05,0,0,0,0,0h0a.08.08,0,0,1,0,0V9.46l-.06,0,0,0s0,.06,0,.09ZM76,9.06h0s0,0,0,0Zm.24,4.12-.07.05a.23.23,0,0,1,0,0h0s0,0-.05.06a.15.15,0,0,0-.06.07v0l0,0,0,0,0,0h0s.06,0,.08-.07,0-.07.06-.06,0,0,0-.08a.13.13,0,0,1,0-.07.06.06,0,0,0,0,0l0,0Zm-.2-4.46s0,0,0,0l0,0h0s0,0,0,0S76.05,8.72,76.06,8.72ZM76.49,12l-.17.2-.11.12a.32.32,0,0,1-.09.08h0l.22-.19.23-.18v0h0a.08.08,0,0,1,0,0v0l0,.06Zm-.31-3.26v0a.05.05,0,0,1,0,0l0,0h0a.31.31,0,0,1,.1-.1l.08-.06s0,0,0,0H76.2v0S76.19,8.72,76.18,8.72Zm.58,1.87-.23.22-.08.07,0,0s0,0-.06.06l-.11.09s-.07.07-.07.08h0a.73.73,0,0,1,.09-.09l.08-.06h0l0-.05,0-.06h0s0,0,0,0l0,0,0,0s0,0,0,0l.15-.1s.08-.09.08-.13v0A.24.24,0,0,0,76.76,10.59Zm-.47,2.28a0,0,0,0,1,0,0s0,0,0,0h0a.44.44,0,0,1,.1-.08.23.23,0,0,0,.09-.06v0a0,0,0,0,0,0,0v0l-.08.09Zm.09-1.16,0,0,0,0h0l.08-.08,0,0h0l.12-.11a.13.13,0,0,0,.07-.11,0,0,0,0,0,0,0l-.15.16Zm.06-2.94s0,0,0,0a.06.06,0,0,0,.05-.06h-.09v0s0,0,0,0a0,0,0,0,0,0,0S76.43,8.77,76.44,8.77Zm0,3.64h0s0,0,0,0v0s0,0,0,0Zm.23-3.67s0,0,0,0,0,0,0-.05h-.1a.06.06,0,0,1,0,0S76.69,8.73,76.7,8.74Zm.08,1.53a0,0,0,0,0,0,0,0,0,0,0,0,0,0,.05.05,0,0,1,.06,0s0,0,0-.08a.1.1,0,0,0,0,0Zm.06-.38.07,0a.05.05,0,0,0,0,0s0,0,0,0a.12.12,0,0,1-.05,0S76.85,9.87,76.84,9.89Zm.09-.35,0,0a0,0,0,0,0,0,0h0l.06,0a.07.07,0,0,0,0,0s0,0,0,0h0s0,0,0,0Zm0-.31,0,0h0l.07,0,.07,0h0V9.1a.13.13,0,0,1-.06.07Z"/><path class="cls-1" d="M83.14,11.67a0,0,0,0,0,0,0,.51.51,0,0,0,0,.09l0,.12a.47.47,0,0,0,.06.15l0,.07a.36.36,0,0,0,0,.1.24.24,0,0,0,.06.11.12.12,0,0,0,.1,0h.33a.11.11,0,0,1,.09,0,.15.15,0,0,1-.09.06l-.13,0h-.27a1.3,1.3,0,0,1,0,.13s0,.11,0,.15l.06.13a.1.1,0,0,0,0,.07h0v0h0a.5.5,0,0,0,0,.12c0,.05,0,.09,0,.13a1,1,0,0,1,.06.14.06.06,0,0,1,.06,0,.2.2,0,0,0,0,0,0,0,0,0,1,0,0v0s0,.06.12.07h.26l.26,0q.12,0,.12,0l0,0-.07,0h-.13l-.24,0h-.26c0,.1,0,.19.08.27a.87.87,0,0,1,0,.31.05.05,0,0,1,0,0l0-.06a.39.39,0,0,1,0-.06h0s0,0,0,0v0h0a.24.24,0,0,1-.09-.17v-.07a.1.1,0,0,1,0-.05.09.09,0,0,0,0-.06H82.38a.06.06,0,0,0,0,0,.09.09,0,0,1,0,.05l0,0s0,0-.07-.05l0-.09h-.57s-.07,0-.08,0,0-.06.12-.06h.39a.09.09,0,0,0,0,0s0,0,0,0v0h0a.22.22,0,0,1,0-.09.41.41,0,0,0,0-.09l0,0s0,0,0,0h0v0s0,0,0,0v0c0-.11-.07-.22-.1-.33l-.09-.35h-2a.08.08,0,0,0,0,0s0,0,0,.06v0h0a.12.12,0,0,0,0,.09.07.07,0,0,1-.06.07s0,0,0,0,0,0,0-.09l0,0a.19.19,0,0,0,0-.08.24.24,0,0,0,0-.08v0h0l0-.09a.53.53,0,0,1,.06-.13v0h0v0h0v0a.31.31,0,0,1,0-.08.2.2,0,0,1,0-.08L80,12a.08.08,0,0,0,0-.05s0,0,0,0h0v0a.41.41,0,0,1,0-.15.4.4,0,0,0,.06-.13.06.06,0,0,1,0-.05.12.12,0,0,0,0-.07v0a.06.06,0,0,0,0-.05.08.08,0,0,1,0,0v0s0,0,0,0,0-.06,0-.11a.61.61,0,0,1,0-.12.1.1,0,0,1,.08,0h0v0a.29.29,0,0,1,0,.09.22.22,0,0,0,0,.11h1.16v0c0-.21-.11-.42-.17-.62s-.11-.41-.16-.62h-1l0,.08,0,.1s0,.09,0,.15l-.1.21-.06.16s0,.08,0,.12a1.31,1.31,0,0,0,0,.15.67.67,0,0,0-.09.21.18.18,0,0,0,0,.06s0,0,0,0l-.06.09a.63.63,0,0,1,0,.14c0,.08,0,.17-.08.26s-.06.17-.09.24a.87.87,0,0,0,0,.14c0,.21-.08.33-.1.39s0,.08,0,.08l0,0s0,.05-.08.16h0s0,0,0,0,0,0,0,0v0a.26.26,0,0,0-.08.12l-.1.25c0,.09-.07.19-.1.29s-.07.18-.1.24a.22.22,0,0,0,.12,0c.06,0,.08,0,.08,0h0l0,0a.26.26,0,0,1-.13,0l-.27,0h-.11a2.19,2.19,0,0,0-.33,0l-.55,0h-.35a.14.14,0,0,0-.12,0,.61.61,0,0,0-.07.14c0,.06,0,.13-.07.2a.83.83,0,0,1-.15.25.05.05,0,0,1,0,0,.61.61,0,0,1,.08-.3,1.3,1.3,0,0,0,.13-.3h-.11s-.08,0-.08-.05,0-.05.07-.05h.11s0,0,0,0l0,0a.06.06,0,0,1,0,0l0-.05.06,0a.11.11,0,0,1,0-.08c0-.07,0-.11,0-.13s0-.05,0-.11a.07.07,0,0,0,0-.05l.1-.07a.25.25,0,0,0,0-.07.07.07,0,0,0,0,0s0,0,0,0l0-.07v0h0v0a.13.13,0,0,1,0-.11s0,0,0-.05a.16.16,0,0,0,0-.06.13.13,0,0,1,0-.08h-.24s-.06,0-.06,0,0-.08.1-.08h.11s.06,0,.06-.05v0s0-.08.09-.14.1-.11.1-.16h0s0,0,0-.07a.58.58,0,0,0,0-.14c0-.06.05-.13.08-.2a.05.05,0,0,0,0,0,0,0,0,0,1,0,0,.16.16,0,0,1,0-.09.37.37,0,0,1,.06-.1l.06-.09a.16.16,0,0,0,0-.08l.06-.18a1.65,1.65,0,0,1,.09-.21l.11-.28.15-.41s0,0,0,0,0,0,0-.06,0,0,0,0l0-.05h-.62c-.07,0-.1,0-.1-.05s.08-.06.24-.06h.5a.22.22,0,0,0,.13,0,.27.27,0,0,0,.07-.08.11.11,0,0,0,0-.07h0a.25.25,0,0,1,0-.09l0-.06a.56.56,0,0,0,0-.08.58.58,0,0,0,0-.15.53.53,0,0,1,.05-.2l0-.1s0,0,0,0,0,0,0,0h0a.21.21,0,0,1,0-.09.19.19,0,0,0,.06-.13v0h0v0h0v0h0s0,0,0,0h0v0h0v0a.24.24,0,0,1,0-.13.64.64,0,0,1,.1-.13l.08-.1s0,0,0,0l0,0,0,0a.28.28,0,0,1,0,.15l0,.05,0,0a.14.14,0,0,0,0,.09s0,0,0,0h.19l.16,0a.37.37,0,0,1,.16,0,.12.12,0,0,1,.08,0h.48a.09.09,0,0,0,.07,0l.06-.08a1.58,1.58,0,0,1,.07-.16.18.18,0,0,1,.07-.16L80.7,8h0a.91.91,0,0,1-.06.26l-.09.21s0,0,0-.05,0,0,.06,0a.08.08,0,0,1,0,0s0,0,0,0h.94a.23.23,0,0,0,.13,0,.21.21,0,0,1,.12,0H82l.11,0a.78.78,0,0,0,0-.21.38.38,0,0,1,0-.17s0-.07,0-.08,0,0,0,0a.31.31,0,0,1,0,.1.56.56,0,0,1,0,.12c0,.05,0,.09,0,.11a.22.22,0,0,0,.07.06.3.3,0,0,0,.18,0h.48l.17,0a1,1,0,0,1,.21,0s0,0-.15,0h-.82l.08.15a.31.31,0,0,1,0,.15,1.39,1.39,0,0,1,0,.17c0,.07,0,.19.08.36s0,.17,0,.25a.14.14,0,0,0,.15.12h.54c.11,0,.16,0,.17.06a1,1,0,0,1-.33.05H82.7c.06.23.11.45.17.66l.18.65h.44a1.06,1.06,0,0,1,.2,0,.13.13,0,0,1,.09,0,1.13,1.13,0,0,1-.32.05H83.1a.64.64,0,0,0,.05.2.48.48,0,0,1,0,.2.08.08,0,0,1,0,.06s0,.06,0,.09a.16.16,0,0,0,0,.09h0s0,0,0,0a.36.36,0,0,0,0-.09l0-.11A.31.31,0,0,1,83.14,11.67ZM77.37,13.6s0,0,0,0,0,0,0,0h0l.2,0s.08,0,.08-.07,0,0,0,0a.2.2,0,0,1-.14,0A.18.18,0,0,1,77.37,13.6Zm.19-.37,0,0h0l0,0Zm.25-.82,0,0s0,0,0,0h0s0,0,0,0,0,0,0,0Zm.9.13a9,9,0,0,0-.88.69l.07,0,.06,0h0a.12.12,0,0,0,.09-.06l0,0h0l0,0a.88.88,0,0,0,.2-.08.28.28,0,0,0,.08-.06l0,0s0,0,.07,0a.28.28,0,0,1,.08-.06l0,0v0l.08,0,0,0h0c0-.05.09-.08.11-.07s0,0,0,0ZM78,13.63H78v0a.06.06,0,0,1,0,0A.12.12,0,0,0,78,13.63Zm1.28-2.09a.47.47,0,0,0-.2.13s0,0,0,0h0a0,0,0,0,0,0,0h0l0,0s0,0,0,0h0s0,0,0,0,0,0,0,0h0s0,0,0,0h0s0,0,0,0h0l-.06,0,0,0h0a.18.18,0,0,0-.16.09c0,.06-.07.09-.1.09l0,0-.06.05h0l-.09.09a.23.23,0,0,0-.07.06h0a.35.35,0,0,1,.12-.07.24.24,0,0,0,.11-.08h0l.08,0,.12-.07.09-.06s0,0,0,0,.07-.06.09-.06l.08,0a0,0,0,0,1,0,0h0l.08-.07a.23.23,0,0,1,.14,0h.08s0,0,0,0a.36.36,0,0,0,.07-.1l0-.1,0-.13a.12.12,0,0,1,0,0h-.06A.08.08,0,0,1,79.23,11.54Zm-.87,2.08h0s0,0,0,0,0,0,0,0S78.36,13.59,78.36,13.62Zm.15-3.12a.08.08,0,0,0,.08-.07s0,0,0,0Zm.06,3.08s0,0,0,0,.09,0,.11-.11l0,0Zm.05-.32.06,0,.06,0h0s0,0,0,0h0l-.06.05ZM78.73,10s0,0,0,0l0,0h0s0,0,0,.06Zm.07,2.89,0,0s0,0,0,0h0a.09.09,0,0,1,.07,0h0a.08.08,0,0,0,0-.05l0,0a0,0,0,0,0,0,0Zm.93-2.57a.24.24,0,0,0-.14.06l-.08.07a.42.42,0,0,1-.14.1l-.1.06-.15.14-.05,0h0l0,0a.7.7,0,0,0-.19.13l-.07.07h0l0,0,.06,0,0,0s0,0,0,0a.9.9,0,0,1,.18-.15l.2-.1.16-.06,0,0h0a.78.78,0,0,0,.18-.08.3.3,0,0,0,.08-.07.14.14,0,0,0,0-.06v0s0,0,0,0h0Zm-.23.46-.09,0-.14.09L79.1,11a.12.12,0,0,0-.09,0l-.05,0s0,0,0,.05h0l-.09.07s0,0,0,0h0a.42.42,0,0,1,.2-.17l.11,0,.15-.09.06,0h0s0,0,0,0l.07,0h.14a.3.3,0,0,1,0-.1s0-.07,0-.11l-.07,0Zm.06-.69-.16.09-.08.08,0,0a.05.05,0,0,1,0,0l-.15.11-.08.06,0,0a.3.3,0,0,1-.1.09s-.07.06-.07.08h0l.07-.05a.1.1,0,0,0,0,0h0l.09-.06a0,0,0,0,1,0,0h0l.06-.05.06,0h0a.24.24,0,0,0,.13-.06s.07-.06,0-.06h0l.1-.09,0,0,0,0a.35.35,0,0,0,.1-.09h0l0,0h0a.17.17,0,0,0-.1,0S79.57,10.05,79.56,10.07Zm-.67,2.35h0s0,0,0,0,0,0,0,0a0,0,0,0,0,0,0s0,0,0,0S78.89,12.4,78.89,12.42Zm0-.29h0s0,0,0,0h0Zm0-2.14A.09.09,0,0,0,79,10L79,9.9s-.06,0-.07,0Zm.46,1.15a.37.37,0,0,1-.17.13,2.22,2.22,0,0,0-.25.16.37.37,0,0,0,.14,0l.11-.07.07-.06h.11a.1.1,0,0,0,.05,0s0,0,0-.05a.16.16,0,0,1,0-.08l-.06,0Zm-.4.94h0s0,0,0,0l0,0h0l0,0ZM80.3,8.64H80a.2.2,0,0,0-.14,0,.24.24,0,0,0-.06.09.13.13,0,0,0,0,.07s0,0,0,0l-.07.06,0,0h0L79.58,9l0,0,0,0s0,.05-.07.09h0l-.17.17-.09.09,0,0,0,0h0v0h0a.36.36,0,0,1,.11-.1l.06,0s0,0,.05,0,0,0,0,0h0s0,0,0,0h0l.05,0h0l0,0v0h0v0h0a.21.21,0,0,0,.15,0A.18.18,0,0,0,79.72,9a.12.12,0,0,0,0-.07h0s0,0,0,0l0,0h0a0,0,0,0,0,0,0,0,0,0,0,1,0,0h0s0,0,0,0h0s0,0,0,0h0a.57.57,0,0,1,.18-.12c.07,0,.09,0,.07,0l.08,0h.1s0,0,0,0Zm-.44.51a1.56,1.56,0,0,1-.28.23,2,2,0,0,0-.27.23l-.13.12-.08.09h0a.21.21,0,0,0,.14-.07c0-.05,0-.06,0,0l.16-.15.1-.05,0,0s0,0,.07-.05a.41.41,0,0,1,.14-.1L80,9.27l0,0a.11.11,0,0,1,0-.06h0v0l0,0a.05.05,0,0,0,0,0h0A.53.53,0,0,1,79.86,9.15Zm-.65-.57,0,.05a.08.08,0,0,1,0,0h0a.14.14,0,0,0,.1-.06s.06,0,.06,0Zm.68,1-.11,0-.1.08-.11.12-.08.08,0,0,0,0,0,0h0a.2.2,0,0,0,.11-.07l.06-.06.23-.15.13-.08v0h0s0,0,0,0l0,0h0A0,0,0,0,0,79.89,9.56Zm-.35-1s0,0-.06,0,0,0,0,.07h0l0,0,.06,0,.06,0h0s0,0,0,0h0Zm.31,1.29h.05s0,0,0,0v0h0s0,0,0,0A0,0,0,0,0,79.85,9.89Zm.05,2.51h0s0,0,0-.05S79.91,12.37,79.9,12.4ZM80,10.16s0,0,0,.05a0,0,0,0,0,0,0,.17.17,0,0,1,0-.1.09.09,0,0,0,0-.08s0,0,0,0A.23.23,0,0,0,80,10.16ZM80,9.73s0,0,0,0Zm.67-.24h0l-.07,0,0,0h0a.07.07,0,0,1,0,0,.2.2,0,0,1-.08,0h-.1c-.06,0-.09,0-.08,0a.09.09,0,0,0,0-.07.36.36,0,0,0,0,.09l0,.08h.45a.07.07,0,0,1,0-.05.14.14,0,0,1,0-.1l.08-.09Zm-.47,2s0,0,0,0l0,0h0s0,0,0,0Zm0,.87h.05s0,0,0,0h0l0,0ZM80.33,9s0,0,0,0l0,0v0l0,0,0,0Zm.88,2.53a3.73,3.73,0,0,1-.38.28l-.39.29v0h0a.58.58,0,0,1,.14-.16l.1,0h.06s0,0,0,0h0l.06,0a.12.12,0,0,0,0,0h0l.12-.11.07-.05,0,0h0l.08,0a.13.13,0,0,0,.07-.06Zm-.76-2.79s0,0,0,0,0,0,0,0h0s0,0,0,0a.06.06,0,0,0,0,0Zm.87-.07-.1.07-.13.07L81,8.85l-.06.05h0s0,0,0,0,0,0-.1.05l0,0,0,0h0l-.07,0-.07.06h0l.06,0,0,0h0a.18.18,0,0,0,.11,0A.16.16,0,0,1,80.82,9h0A.36.36,0,0,1,81,8.91l.16-.09.2-.09h0a.12.12,0,0,1,.08,0,.12.12,0,0,0,.07,0Zm-.79,2.9,0,0s0,0,0,0h0s0,0,0,0A0,0,0,0,0,80.53,11.54Zm.23-2.9a.28.28,0,0,1-.14.09.14.14,0,0,0-.09.12l.06,0s0,0,0,0h0l.18-.07A.42.42,0,0,0,81,8.64Zm-.14,3.76h.17l0-.06a0,0,0,0,1,0,0v0h0a.13.13,0,0,1-.07.06A.12.12,0,0,0,80.62,12.4Zm.45,0h.09v0h0l-.05,0S81.07,12.38,81.07,12.4Zm1-3.6s0,0,0,0l0,0h0s0,0,0,0h-.06a.33.33,0,0,0-.14.09,1.27,1.27,0,0,1-.17.17l-.07,0h-.05a.56.56,0,0,0-.14.09l-.07.05-.09.06h0c.1-.09.17-.14.23-.14h0a.75.75,0,0,0,.14-.08l.05,0h.07a.21.21,0,0,0,.12-.05L81.8,9A.45.45,0,0,1,82,8.89h.1s0,0,0,0l0,0a.25.25,0,0,0,0-.07.12.12,0,0,0-.05,0,.06.06,0,0,1,0,.06Zm-.52,2.8,0,0a.77.77,0,0,0-.15.1c-.06,0-.09.08-.08.09l.1,0,.11-.08.08-.08a.15.15,0,0,0,0-.06l0-.05a.2.2,0,0,1,0,.05ZM82.21,9a.18.18,0,0,1-.12.09l-.09,0-.39.22a3.75,3.75,0,0,0-.36.24l0,0,0,0h0a.53.53,0,0,1,.2-.16h.11a.11.11,0,0,1,.07,0s.07,0,.14-.1h0l0,0,.3-.12.05,0V9Zm-.83,1.22h0l0,0s0,0,0,0l0,0a.05.05,0,0,0,0,0Zm.05.19h0l0,0,0,0h-.1v0S81.43,10.43,81.43,10.44Zm.37.06h0c-.07.07-.13.12-.19.12l-.09,0a.28.28,0,0,0,0,.09l0,.06a.65.65,0,0,1,.12-.11l.15-.11.12-.1s.06,0,.06-.06h0l-.11.05Zm0,.44-.07,0-.08,0h0a.07.07,0,0,1,0,.05.05.05,0,0,0,0,0,.22.22,0,0,1,.07-.07s.06,0,0,0l0,0a0,0,0,0,0,0,0h0a0,0,0,0,1,0,0Zm.11-2.34a.1.1,0,0,1-.06.08.08.08,0,0,0-.07.05l.15-.06.1,0-.05,0h-.07Zm.63,1.65c-.08.07-.13.11-.16.11s0,0,0,0h0l-.06.07s-.05,0-.08,0,0,0,0,0h0s0,0-.05.05l-.1.07-.09.08a.12.12,0,0,0,0,0h0s0,0,.06-.05l.07,0,.08,0s0,0,0,0,0,0,0,0,0,0,0,0,.15,0,.17-.05,0-.06.06-.06a.19.19,0,0,0,.1-.05.25.25,0,0,1,.11-.05s0,0,0,0,0-.05,0-.06a.11.11,0,0,1,0-.06l0,0s0,0,0,0v0l0,0A.08.08,0,0,1,82.52,10.25Zm-.31-.9,0,0,0,0-.05,0h0l.07,0h.09a.05.05,0,0,1,.05,0s0,0,0,.06a.12.12,0,0,1,0,.07l-.06,0-.06,0s0,0,0,0l-.06,0,0,0h0L82,9.73s0,0-.06.06a1.12,1.12,0,0,0,.22-.1.9.9,0,0,1,.22-.1s0,0,0,0,0,0,0,0a.09.09,0,0,1,0,.08l-.06,0h.22l-.09-.25-.09-.25-.06,0S82.23,9.34,82.21,9.35Zm-.27,3h0s.05,0,.05,0Zm.06-1h0l0,0h0s0,0,0,0Zm0,1.35h0s0,0,0,0l0,0H82v0Zm0-2.76s0,0,0,0h0s0,0,0,0h0S82,10,82.05,9.94Zm.65,1.4-.19.2-.21.21-.16.19-.06.09v0l.36-.38a1,1,0,0,1,.16-.16l.12-.09a.24.24,0,0,1,.11,0h0v0H82.7ZM82.12,13a0,0,0,0,0,0,0s0,0,0,0l0,0a.15.15,0,0,0,0-.06,0,0,0,0,0,0,0S82.17,13,82.12,13Zm.56-2.23c-.05.09-.09.13-.12.13l-.07,0a.39.39,0,0,0-.11.09s-.06.06,0,.06l-.11.08a.24.24,0,0,0-.08.09.06.06,0,0,0,.06,0l0,0h0s0,0,0,0l0,0a.44.44,0,0,1,.11-.12l.06-.05h0a.14.14,0,0,0,.11-.05.28.28,0,0,0,.06-.06S82.71,10.76,82.68,10.76Zm-.24-.85a.18.18,0,0,1,0,.07L82.3,10l-.08.06s0,0,0,0h0a.34.34,0,0,1,.16-.1l.18,0h0v0a0,0,0,0,1,0,0v0Zm.15.64,0,0,0,0h0l-.08.05-.1.08-.1.08,0,0h0l.15-.12.07,0v0a.46.46,0,0,0,.1-.05l0,0h.1l0,0s0,0,0-.05a.05.05,0,0,0,0,0s0,0,0,0Zm-.28,2.06,0,0a0,0,0,0,0,0,0h0l.14-.14a0,0,0,0,0,0,0,.05.05,0,0,0,0,0Zm.16,1h0l0,0h0v0l0,0,0,0h.13c.06,0,.09,0,.09,0s0,0,0,0l0,0h0v-.05h0s0,0,0,0Zm.23-1.81-.16.19a.63.63,0,0,0-.1.12l.25-.22a1.35,1.35,0,0,1,.27-.2l0-.07,0-.07a.71.71,0,0,1-.1.14Zm.32.1s0,0,0,0l-.14.15-.16.15-.13.14s-.06.07-.06.09,0,0,0,0h0a.12.12,0,0,0,.09,0,.39.39,0,0,0,.1-.08l.07-.07,0,0s.06,0,.09-.07,0,0,0,0h0l.06,0,.06,0h0a.29.29,0,0,1,0-.09A.59.59,0,0,0,83,11.86Zm-.34-.76-.05,0s0,0,0,0h0l.08-.07a.14.14,0,0,1,.11,0v0a0,0,0,0,1,0,0v0a.09.09,0,0,0-.06,0S82.69,11.08,82.68,11.1Zm.14,1.45-.15.14,0,0s0,0,0,0v0a0,0,0,0,0,0,0h0a1.29,1.29,0,0,1,.17-.16l.17-.15h-.09Zm.31.11-.28.27a.61.61,0,0,0-.12.14l.25-.18.12-.12.09,0s0,0,.09,0a.19.19,0,0,0,0-.08.08.08,0,0,1,0-.07.18.18,0,0,0-.07,0Zm-.39,1h.1a.07.07,0,0,1,0-.05s0,0,0,0a.05.05,0,0,1,0,0Zm.3-1.37a.07.07,0,0,1,0,.06,0,0,0,0,0,0,0h0c.06,0,.1,0,.12,0s0,0,0,0,0-.05,0-.06a.16.16,0,0,0,0-.07.09.09,0,0,1,0,.07S83,12.27,83,12.28Zm.24.65a.57.57,0,0,1-.13.14l-.08.09h0s0-.05.08-.08l.11-.07s0,0,.07,0,0,0,0-.08h0l0,0S83.29,12.93,83.28,12.93Zm.13.24a.43.43,0,0,1-.11.12l-.11.11a.1.1,0,0,0,.08-.05l0,0s0,0,0,0,0,0,0,0l.06,0a.05.05,0,0,0,0,0,0,0,0,0,1,0,0h0Z"/><path class="cls-1" d="M88.66,8.45a.1.1,0,0,0,.07,0h.41a.22.22,0,0,1,.12,0l.08,0,.06.06v0l.09.07.07.06,0,.06h0l.06,0a.09.09,0,0,1,0,.05h0s0,0,.06.06l.06.14a.83.83,0,0,0,0,.12s0,0,0,0,0,0,0,0v0s0,0,0,.06l0,.08a1.09,1.09,0,0,1,.07.3,1.42,1.42,0,0,1,0,.28V10s0,.08,0,.11a.3.3,0,0,0,0,.1.19.19,0,0,1,0,.07.19.19,0,0,1,0,.08.14.14,0,0,0,0,.07v.24s0,.06,0,.07,0,0,0,.08a0,0,0,0,1,0,.05A.06.06,0,0,0,90,11v.12a.14.14,0,0,0,0,.07.13.13,0,0,1,0,.06.32.32,0,0,1-.06.23s-.06.07-.06.09h0l-.07.06s0,.05,0,.07h0l-.08.11-.08.07-.07,0-.08,0-.08.07a.17.17,0,0,0-.06.06h0v0l-.06,0,0,0-.05,0h0l-.13.05a.31.31,0,0,1-.13,0h-.18a0,0,0,0,0,0,0l0,0v0h0s0,0,0,0,0,0,0,0l0,0a.74.74,0,0,1,.08.12l.12.14.18.19.06.08a.08.08,0,0,1,0,0l0,0v0h0l0,0v0h0s0,0,0,.08a.31.31,0,0,0,.12.16h0v0h0l.05.06,0,.06,0,0h.42a.43.43,0,0,1,.16,0s0,0-.08.05l-.1,0H87.92l-.06,0s0,0,0,0h-.34s-.08,0-.08-.07,0-.05.08-.05h.33a.12.12,0,0,0,0-.08l-.06-.09a.38.38,0,0,1-.09-.09.73.73,0,0,0-.17-.25s-.06-.05,0-.05a.42.42,0,0,0-.13-.16c-.06,0-.08-.07-.08-.09a.13.13,0,0,0,0-.08l-.06-.06,0,0h0v0s0,0,0-.05,0,0,0,0a.27.27,0,0,1-.09-.11l-.06-.07a.16.16,0,0,0-.1-.05h-.22s0,0-.05.06l0,.09s-.08-.09-.09-.2,0-.21,0-.3v-.47c0-.17,0-.33,0-.5a.34.34,0,0,0,0-.09v-.09a.3.3,0,0,1,0-.14.08.08,0,0,1,.09-.06s0,0,0,.1v.11h1.72l.12,0a.21.21,0,0,0,.1-.06.11.11,0,0,0,0-.09,0,0,0,0,1,0,0h0a.08.08,0,0,1,0-.06s0-.07,0-.16a.5.5,0,0,0-.09-.29.41.41,0,0,0-.34-.12H85.8l0,0s0,0,0,.05a.11.11,0,0,1,0,.09.1.1,0,0,0,0,.09.28.28,0,0,0,0,.09v.08l0,.16a.63.63,0,0,0,0,.16c0,.24,0,.49,0,.75v1a1.28,1.28,0,0,0,0,.19.7.7,0,0,0,0,.16l0,.15v.5a.45.45,0,0,0,0,.13v.15h.37a.75.75,0,0,1,.31.06s-.09.07-.2.08H85.8a.05.05,0,0,0,0,0v0s0,0,0,.06l0,.08a.08.08,0,0,1-.06-.09.12.12,0,0,0,0-.12h-.26a2.67,2.67,0,0,0-.4,0h-.36c-.11,0-.17,0-.17,0V14a.51.51,0,0,1,0,.1s0,.08-.07.08a.19.19,0,0,1,0-.08l0-.12s0-.08,0-.11,0-.05,0-.05h-.19s0,0,0,0,0-.05.1-.05h.17V13.1c0-.19,0-.37,0-.55,0,0,0,0,0-.08a.76.76,0,0,0,0-.15.92.92,0,0,1,0-.16.54.54,0,0,1,0-.11.28.28,0,0,1,0-.09v-.09h0v0h0s0,0,0-.1v-.3c0-.06,0-.11,0-.17v0a0,0,0,0,1,0,0s0,0,0,0v-.05s0-.05,0-.08v-.2s0-.06,0-.09,0,0,0,0h0a.53.53,0,0,0,0-.13v-.31a1.09,1.09,0,0,1,0-.18.28.28,0,0,1,0-.09V9.88a.09.09,0,0,0-.09,0s-.06,0-.06,0a.06.06,0,0,1,.07,0s.07,0,.08,0V9.57a.66.66,0,0,0,0-.14.5.5,0,0,0,0-.12.84.84,0,0,1,0-.1.36.36,0,0,1,0-.1.53.53,0,0,0,0-.13V8.77c0-.09,0-.13,0-.13h-.61l-.12-.05c0-.05,0-.07.11-.07h.39l.08,0h.17s0,0,0,0l0,0h0a.05.05,0,0,1,.06,0s0,0,0,0h.68l.36,0c.11,0,.16,0,.16-.05V8.35a1.42,1.42,0,0,1,0-.19c0-.07,0-.11.06-.11s.06.09.06.19V8.4s0,.07,0,.07h2.71V8.25a.61.61,0,0,1,0-.14.21.21,0,0,1,0-.11s0,0,.06.07,0,.1,0,.15v.23Zm-4.2,5,0,0,0,0s0,0,0,0h0v0S84.45,13.48,84.46,13.48Zm.06-.41h0s0,0,0,0,0,0,0,.08v.11l.07,0,.06-.07,0-.06h0s0,0,0,0Zm0-4.31,0,0a0,0,0,0,0,0,0h0l.14-.11h0l0,0Zm0,4.15,0,0s0,0,0,0h0a0,0,0,0,0,0,0S84.46,12.91,84.47,12.91Zm.34.61s0,0,0,0h0l0,0-.1.05-.08,0,0,0h0s0,0,0,0h.24a.48.48,0,0,0,.18,0h.25s0,0,0,0l0,0-.1,0a.22.22,0,0,1-.11,0h-.06a.05.05,0,0,1,0,0,.08.08,0,0,1,0,0v0a0,0,0,0,0,0,0l0,0Zm-.35-4.14v0a.07.07,0,0,1,0,0,.08.08,0,0,0,0-.05l0,0Zm.11.27,0,0h-.06v0s0,0,0,0l.11-.08s.07-.07.07-.08h0l0,0S84.58,9.63,84.57,9.65Zm-.1.34,0,0,0,0h-.07v0Zm0,.15v.13a.22.22,0,0,1,.11-.1q.09,0,.09-.09h0l-.07,0a.13.13,0,0,1-.08,0Zm0,.38v.06s0,0,0,0a.39.39,0,0,1,.1-.08s.05,0,.05-.06h0A.26.26,0,0,1,84.46,10.52Zm0,.6h0v0h0a.11.11,0,0,1,.07-.06,0,0,0,0,0,0,0h0l0,0Zm0,.33,0,0h0A0,0,0,0,0,84.47,11.45Zm.21.53,0,0s0,0-.05,0l0,0s0,0,0,0l-.07,0s0,0,0,.1h0v.06h0l.09-.09.12-.12.11-.1,0,0h0Zm-.21.58.07-.09h-.08v.07A0,0,0,0,0,84.47,12.56Zm.35-3.92-.07.07s0,0,0,0l.11-.06.09-.06Zm.73,2.23,0,0,0,0s0,0,0,0v0h0a.05.05,0,0,1,0,0l0,0h0s0,0,0,0,0,0,0,0h0l0,0,0,0h0a.08.08,0,0,1,0,0l0,0s0,0,0,0l0,0h0l-.06,0,0,.07,0,0s0,0,0,0h0l.11-.08.12-.07.09,0s0,0,0,0h0l0,0,.11-.07.12-.07.09,0h0s0,0,0,0h0S85.55,10.88,85.55,10.87Zm0-2.12a.64.64,0,0,0-.16.1.22.22,0,0,0-.07.07v0h0l0,.06s0,0-.05,0h0l-.07.06-.1.07L85,9.21l0,0a2.09,2.09,0,0,0,.36-.19,2.71,2.71,0,0,1,.37-.21s0,0,0-.06v-.1l0,0Zm-.22,3.17-.1.09-.15.13-.13.12s0,.06,0,.08,0,0,.07,0l.05-.05,0,0h0s0,0,0-.06.06,0,.07-.05h0l0,0,0-.05s0,0,0,0h0s.08,0,.13-.09a.54.54,0,0,0,.07-.09s0,0,0,0a.08.08,0,0,0-.07,0Zm-.18-2a.24.24,0,0,1-.09.08s0,0,0,0h0s0-.07.1-.09l.09,0s0,0,0,0,0,0,0,0h0Zm.2,1.4-.07.06,0,.05h0s0,0,0,0l0,0h0l0,0a.05.05,0,0,0,0,0h0l.25-.17a.54.54,0,0,1,.27-.09v-.13s0,0,0,0a.69.69,0,0,1-.13.11Zm.09.93-.06.06,0,.05h0l0,0h0l0,0,.06,0,0,0s0,0,0,0l.09,0,.09,0v-.09s0,0,0,0a.27.27,0,0,1-.08.07Zm.12-2.63a.53.53,0,0,1-.11.09.39.39,0,0,0-.1.08h0l.09,0a.19.19,0,0,0,.09,0,.11.11,0,0,0,0-.09h-.06Zm0,.67-.1.07s0,0,0,0h0l.12-.05s.07,0,.07-.06h0v0l0,0Zm0,.32h0l0,0s0,0,0,0h0a.24.24,0,0,1,.08-.06h.1s0,0,0,0v0s0,0,0,0l0,0ZM85.6,13s0,.05,0,.07,0,0,0,0,0,0,0,0l.11-.09a.42.42,0,0,0,0-.14v-.07a0,0,0,0,1,0,0v0s0,0,0,0l-.09.07a.24.24,0,0,0-.08.09h0a.1.1,0,0,1,.07,0Zm-.12-1.43h.07V11.5l0,0Zm.1.93a.07.07,0,0,0,0,0h0a.05.05,0,0,1,0,0,.05.05,0,0,0,0-.06Zm0-3.36h0a.05.05,0,0,0,.06-.06s0,0,0,0l0,0s0,0,0,0Zm.07,4.27s0,0,0,0S85.62,13.39,85.62,13.41Zm0,.25v-.05h0a0,0,0,0,0,0,0S85.63,13.66,85.64,13.66Zm.23-5s-.07,0-.07,0,0,0,0,.07a.15.15,0,0,0,.08,0l.07-.07h0a.05.05,0,0,0,0,0Zm-.07,1,0,0,0,0h0a.08.08,0,0,1,0,0,.05.05,0,0,0,0,0Zm1-1-.22.19-.15.11-.08,0s0,0,0,0h0s0,0,0,0h0l0,0,0,0,0,0h0l0,0h0s0,0,0,0h0A1.42,1.42,0,0,1,86.24,9l.08,0h0s0,0,0,0,.11-.1.12-.09h0a.06.06,0,0,0,.05,0l.06,0,.07-.06.06,0,0,0h0s0,0,0,0h0l0,0Zm.38,0-.09.09-.06,0,0,0s0,0,0,0,0,0,0,0a0,0,0,0,0,0,0h0l0,0a1.21,1.21,0,0,0-.32.21c0,.06-.06.08-.06.07a2.14,2.14,0,0,0-.26.19c-.08.07-.13.11-.13.13h0a.85.85,0,0,1,.19-.14c.07,0,.09,0,.08,0s0,0,0,0,0,0,0,0h0s0,0,0,0h0l.06-.07,0,0h0s0,0,0,0l.09-.08S86.77,9,86.8,9h0s0,0,0,0h0A.72.72,0,0,1,87,8.82s0,0,0,0h0l.12-.09.1-.07h0l.05,0,0,0h-.14Q87.19,8.57,87.19,8.62Zm-1.08,0a0,0,0,0,0,0,0A0,0,0,0,0,86.11,8.61Zm.13,1.13h.24s-.06,0-.06-.05,0,0,0,0l-.07,0Zm.32,1.15h0a0,0,0,0,0,0,0h0S86.56,10.9,86.56,10.89Zm.18.07-.19.11s0,0,0,0h0l0,0s0,0,0,0h0a.12.12,0,0,1,.05-.05l.07,0,0,0s0,0,0,0,0,0,0,0l0,0h-.15v0A0,0,0,0,0,86.74,11Zm-.22,1a.34.34,0,0,0,.2-.09l0-.07H86.7a.26.26,0,0,0-.14,0A.17.17,0,0,0,86.52,12Zm.06-2.27h.25a.08.08,0,0,1,0,0s0,0,0,0a.11.11,0,0,1-.09,0Zm1.47-1.12s0,0,0,0l-.08,0-.09.06,0,0h0l-.11.06a.25.25,0,0,0-.12.1h0s0,0,0,0h-.06s0,0,0,0l-.15.11-.09.05h0l-.1.09-.06,0h0l-.2.18q-.09.06-.09.09h0l0,0,0,0h0l.1,0,.13-.1a.69.69,0,0,1,.13-.11l.1-.08A2.71,2.71,0,0,0,87.49,9c.08-.05.11-.08.1-.08h0s.05,0,.1-.06l.07-.06h0A.56.56,0,0,0,88,8.65h0s0,0,0,0h0a0,0,0,0,0,0,0h0s0,0,0,0h0Zm-1.3.58,0,0,.07,0a.05.05,0,0,0,0-.06h0l0,0Zm1,1.69s0,0,0,0a0,0,0,0,1,0,0s0,0,0,.05h0a.48.48,0,0,1-.18.15h0l-.41.28-.17.13,0,0s0,0,0,0a.05.05,0,0,0-.06,0v0h.08l0,0,.06-.06.09-.09h0a0,0,0,0,1,0,0l.16-.12h0l0,0h0s0,0,0,0h0l0,0h0s0,0,0,0h0a.18.18,0,0,1,.08-.1l.15-.07.12,0s0,0,0,0A.57.57,0,0,1,88,11a.19.19,0,0,0,.1,0h-.37Zm-.77,1a.17.17,0,0,0,.11-.08l-.07,0Zm0-2.2h.13s0,0,0,0,0,0,0,0,0,0,0,0A.05.05,0,0,0,87,9.74Zm.5-.54a.48.48,0,0,0-.16.12.19.19,0,0,1-.14.08l-.06,0-.05.05,0,0a1.3,1.3,0,0,1,.2-.17l.12-.07s0,0,0,0h0l.06,0s0,0,0-.05h0l0,0Zm-.23,3.34a.05.05,0,0,0,0,0h0ZM87.36,11l0,0s0,0,0,0h0a.45.45,0,0,1,.21-.12c.08,0,.12-.05.12-.08h-.26s0,0,0,0,0,0,0,0l0,0S87.36,11,87.36,11Zm.09,1a.18.18,0,0,1-.07,0s0,0-.06.05h.33l.09,0h.08v0a0,0,0,0,0,0,0,0,0,0,0,1,0,0,.06.06,0,0,1,0,0,.38.38,0,0,0-.13.06l-.13,0A.13.13,0,0,1,87.45,12Zm-.09.67,0,0,0,0a.05.05,0,0,1,0,0l0,0,0,0Zm0-2.92h.17V9.68s0,0,0,0l-.08,0Zm1.11-.92-.07,0s0,0,0,0h0a.05.05,0,0,1,0,0l0,0h0s0,0,0,0h0s0,0,0,0h0a1.13,1.13,0,0,1-.16.13l-.12.06-.12.05a.51.51,0,0,0-.16.12h0s0,0,0,0h0l-.17.13.08,0s0,0,0,0,0,0,0,0h.05l.06-.05a.11.11,0,0,1,.09-.05.09.09,0,0,0,.06,0L88,9.2,88,9.14l.06,0h0l0,0,0,0h0s0,0,0,0,0,0,0,0l0,0,.08-.05.07,0s0,0,0,0a.05.05,0,0,1,0,0,.05.05,0,0,0,0,0h-.06Zm-.88-.18c.05,0,.08,0,.09-.06h-.07S87.6,8.6,87.6,8.64Zm.05,3.6s0,0,0,0h0l0,0Zm.07.67s0,0,0,0h0s0,.07,0,.08h0a.07.07,0,0,1,0-.06s0,0,0,0h0Zm.09-3.17H88s0,0,0-.05,0,0,0,0a.12.12,0,0,1-.08.06A.08.08,0,0,0,87.81,9.74Zm.55-.6-.17.12a.29.29,0,0,1-.1.06h0L88,9.42l-.08.08A.16.16,0,0,0,88,9.43s.07-.07.07,0a.05.05,0,0,0,0,0s0,0,0,0h0a.66.66,0,0,1,.17-.12l.08-.05h0l.06,0s0,0,0,0,0,0,0,0l-.08.06Zm0,3.16-.15.06,0,0h0a.32.32,0,0,1-.13.07l-.08,0h0l.12,0,.07,0s0,0,0,0h0l0,0,.06,0a.26.26,0,0,0,.17-.05.15.15,0,0,1,.11,0s.06,0,.07,0,0,0,0,0,0,0,0,0v0s0,0,0-.06a.07.07,0,0,0-.07,0l-.07,0Zm.09-.82.07,0h0l.06,0s0,0,0-.08v-.06s0,0,0,0l-.11.07,0,0h0l0,0s0,0,0,0h0l-.06.06-.05,0h0s0,0,0,0h0l-.06,0-.05.05h0a.31.31,0,0,1-.09.07.17.17,0,0,0-.06.06Zm-.32.41,0,0h0s0,0,.07,0,.06,0,.06,0h0A.18.18,0,0,0,88.1,11.89Zm.55.64c-.11,0-.17.05-.18.07a.1.1,0,0,1-.06.05l-.12,0-.09.06-.08.05h0l.15-.11,0,0h0s0,0,.07,0h0a.09.09,0,0,1,.07,0,.07.07,0,0,0,.06,0h.1s0,0,0,0l0,0h0ZM88.21,11a.09.09,0,0,1,.06,0,.09.09,0,0,0,.06,0h-.17S88.19,11,88.21,11Zm.28-1.69v0a.21.21,0,0,0-.13.05l-.09.1-.06.08s0,0,0,0v0l0,0h0a.19.19,0,0,0,.09,0l.1-.07a.3.3,0,0,0,.08-.08.13.13,0,0,0,0-.07l0,0s0,0,0,0Zm-.08-.72-.08.06s-.06,0-.06.06h0l.09,0a.31.31,0,0,0,.12-.08Zm0,3.13h.11c.06,0,.09,0,.1-.05H88.5l-.07,0Zm.18-.68a0,0,0,0,0,0,0v-.1h-.07a.09.09,0,0,1,0,.08Zm0-1.4,0,0s0,0,0,0h0l0,0S88.52,9.64,88.53,9.64Zm0,2.44,0,0h0Zm.19.62a0,0,0,0,0,0,0l0,0h0l0,0h0a.2.2,0,0,1,.11,0,.21.21,0,0,0,.1-.06s0,0,0,0a0,0,0,0,0,0,0s0,0,0,0Zm0,.27h0l.12,0,.11,0S89,13,89,13a.43.43,0,0,1,0,0h0a.05.05,0,0,0,0,0S89,13,89,12.93s0,0,0,0v0h0l0,0h0l-.11.06A.31.31,0,0,0,88.71,13Zm0,.42s0,0,0,0h0l0,0Zm.17-4.8s0,.05-.08.08-.07,0-.07.05h0a.35.35,0,0,1,.12-.07A.26.26,0,0,0,89,8.59Zm.2.15c-.23.11-.34.18-.34.2V9h0l.07,0,0,0A.45.45,0,0,1,89,8.77l.07,0h0l.06,0,0,0h-.06Zm.29.25V9a.14.14,0,0,1,0,.06l-.06.06-.08.06h0l.08-.08.09,0,.09,0A.08.08,0,0,0,89.51,9l-.1-.12-.08-.09-.07,0-.08.05a.2.2,0,0,0-.11,0L89,9l-.06,0a0,0,0,0,0,0,0l-.16.1,0,0v.05h0a.21.21,0,0,0,.12-.05l.13-.1a.78.78,0,0,1,.15-.1.31.31,0,0,1,.17-.05l0,0A.1.1,0,0,1,89.35,9Zm-.55.46,0,0,0,0s0,0,0,0l.09,0,.07-.07h0Zm-.06.5h0s0,0,0,0v0h0a0,0,0,0,0,0,0S88.72,10,88.74,10Zm0,1V11l.1-.06.08-.08-.09,0Zm.37,2.24a.12.12,0,0,1-.08.05l-.12,0-.1,0s0,0,0,0h0l.07,0,0,0h0v0a.28.28,0,0,1,.11-.07h.16s0,0,0-.05l0,0h0Zm.47-4a.05.05,0,0,0,0,0h0l-.1.07a.17.17,0,0,1-.11.06h0s0,0,0,0,0,0,0,0l0,0h0a.61.61,0,0,1-.12.09l-.09,0-.06,0s0,0,0,0h0l.11-.06.06,0h0l.15-.13a.25.25,0,0,1,.08-.05h0a.06.06,0,0,0,0,0l.16-.09.07-.05,0,0h0v0h0s0,0,0,0S89.57,9.2,89.56,9.22ZM89,11.68a.61.61,0,0,1,.22-.16s.06,0,0,0l.18-.11h0a.53.53,0,0,1,.15-.12l.11,0,.07,0s0,0,0,0h0s0,0,0,0v-.06h0a.22.22,0,0,1-.07.06l-.08.05-.07,0s0,0,0,0h0a0,0,0,0,0,0,0h0l-.06,0s0,0,0,0h0l0,0,0,0h0a.89.89,0,0,1-.18.14l-.12.08a.16.16,0,0,0-.08.05.1.1,0,0,0,0,.08H89Zm.3-1.8s0,0-.07.06l-.07,0h0v0h0l0,0s0,0,0,.05l0,0h0l0,0,0,0h0v0h0l.07,0,.09-.06.07,0h0l.08-.05.05,0h-.09Zm.42.31q-.15.08-.15.09l0,0h0l0,0s0,0,0,0h0l0,0s0,0,0,0,0,0-.06,0l-.11.06-.1.07,0,0s0,0,0,0l0,0s0,0,0,0h0a1.33,1.33,0,0,1,.2-.14.49.49,0,0,1,.17-.06h0s0,0,0,0h0a0,0,0,0,1,0,0h0a.35.35,0,0,0,.18-.05.18.18,0,0,0,.08-.15A.48.48,0,0,0,89.73,10.19Zm.07-.29h0v0h0l0,0-.05,0h0a.38.38,0,0,1-.11.08l-.17.11-.15.09-.07.05h0a.63.63,0,0,1,.24-.14.13.13,0,0,0,.09,0,2,2,0,0,0,.18-.1l.08,0h.18V9.92s0,0,0,0Zm-.09-.51s0,0,0,0l-.2.19-.11.07H89.3l-.07,0s0,0-.06.05a.29.29,0,0,0,.17-.06c.06,0,.08-.06.08,0v0h0c.07,0,.12,0,.14-.06a.08.08,0,0,1,.09-.07s.08,0,.08.1a.1.1,0,0,1,0,.07l-.08.05a.23.23,0,0,1-.1,0l.06,0,.09,0a.2.2,0,0,1,.11,0,.9.9,0,0,0,0-.18Zm-.44,4s0,0,0,0h0l.07,0,.06,0,0,0h0Zm.3-2.44-.3.17h0a0,0,0,0,0,0,0s0,0,0,0h0l0,0,0,0,.09,0,.16-.09.14-.09s.07-.05.07-.07h0Zm.19.54-.12.08,0,0h0l-.1.07-.1.07a.14.14,0,0,0,.11-.05s0,0,0,0h0l.09,0,.05,0,0,0,.08-.07s0,0,0,0Zm-.14-.82v0l.11,0a.53.53,0,0,1,.1-.06,0,0,0,0,0,0,0h0s0,0,0,0V10.5a.37.37,0,0,0-.14.07A.23.23,0,0,1,89.62,10.64Z"/><path class="cls-1" d="M90.86,7.88s0,0,0,.08a.8.8,0,0,0,0,.11v.24c0,.1,0,.2,0,.31s0,.26,0,.44l0,0A.18.18,0,0,0,91,9l.08-.11s0-.06.09-.11l.15-.09,0,0h0l0,0,0,0,.08,0,.07,0s0,0,0,0l0,0h.11a.08.08,0,0,0,.07,0h.07s0,0,0,0l0,0h0v0a1.09,1.09,0,0,1,0-.18v0l0,0,0,0a.16.16,0,0,1,0,.06s0,.08,0,.12a.52.52,0,0,1,0,.11s0,.05,0,.05h.71l.56,0h2.17l.22,0,.12,0h0l.06,0h.06a0,0,0,0,0,0,0,0,0,0,0,0,0,0h.11l.09,0h.1s0,0,0,0,0,0,0,0,0-.05.06-.05.05,0,.07.05l0,.11v.19s0,.06,0,.08V8.9s0,0,0,0,0,.21,0,.31a1.68,1.68,0,0,1,0,.29c0,.05,0,.08,0,.1H97a1,1,0,0,1,.31,0,.3.3,0,0,1-.2.05h-.23s0,0,0,0,0,.08-.09.08h-.19l-.51,0-.56,0H93.79l-.64,0-.84,0h-.14a1.11,1.11,0,0,1,0,.26v.27l.54,0h.74a.31.31,0,0,0,.13,0,.56.56,0,0,1,.2,0h.3l.36,0,.38,0h.36l.08,0,0,0h.07l.07,0,.05,0h1a1.36,1.36,0,0,1,.3,0,.33.33,0,0,1-.22.08l-.36,0h-.68v.06l0,0h0l0,0c0,.14,0,.28,0,.43a3.22,3.22,0,0,1,0,.43.24.24,0,0,1,0,.08.14.14,0,0,0,0,.06h0l0,0a.06.06,0,0,0,0,0s0,0,.06,0h1.07a1.17,1.17,0,0,1,.27,0s0,0-.11.06l-.18,0H92.76l-.58,0v.15a1.28,1.28,0,0,0,0,.19c0,.06,0,.11,0,.16s0,.06,0,.06h.83a3,3,0,0,0,.45,0h1.36l1.47,0h.12a0,0,0,0,0,0,0s0,0,.07,0a0,0,0,0,1,.05,0s0,0,.1,0h.11c.1,0,.16,0,.19.06s0,.07-.1.07h-.27v.08a.08.08,0,0,0,0,.07s0,0,0,.09a.44.44,0,0,1,0,.1.5.5,0,0,0,0,.12v0a0,0,0,0,0,0,0h0a.05.05,0,0,1,0,0l0,.06s0,.07,0,.08,0,0,0,0l0,0,0,.05a.45.45,0,0,1,0,.13c0,.06,0,.08.08.08h.29l.08,0h.07l.07,0s0,0,0,0,0,0-.11,0h-.54v0h0a.08.08,0,0,0,0,.06s0,0-.06,0a.19.19,0,0,1-.1-.05.14.14,0,0,0-.1-.06h-.64l-.41,0h-1l-.23,0-.25,0H91.53s0,0-.07,0l-.1,0h-.5a.12.12,0,0,1-.09,0l0,0s.05-.06.12-.06h.39s0,0,0,0h0v0l-.08,0a.15.15,0,0,1-.07-.11,1.29,1.29,0,0,1-.19-.23l0-.09,0-.17a2.49,2.49,0,0,1,0-.41,2.35,2.35,0,0,1,0-.26,1.5,1.5,0,0,0,0-.3v-.11s0-.07-.08-.07h-.08s-.05,0-.06,0h0s0,0,0,0h0a.07.07,0,0,1,.08-.08h.16s0-.06,0-.1v-.17a.19.19,0,0,0,0-.08c0-.11,0-.23,0-.34s0-.22,0-.33a.74.74,0,0,0,0-.12.2.2,0,0,0,0-.07.13.13,0,0,1,0-.06s0-.06,0-.07a.19.19,0,0,0,0-.08v-.17a1.27,1.27,0,0,1,0-.2l0-.2a.45.45,0,0,0,0-.11V9.53a.4.4,0,0,1,0-.17.38.38,0,0,0,0-.16V8.92a2.53,2.53,0,0,1,0-.28V8.25a1.33,1.33,0,0,1,0-.32h0v0h0Zm.25,1.75-.07,0a.17.17,0,0,1-.1,0v.15a.2.2,0,0,1,0-.08l.09-.09a.35.35,0,0,0,.09-.07s0,0,0,0h0a.08.08,0,0,1,0,0Zm-.17,1.77v.1a.62.62,0,0,1,.08-.12l.09-.12H91s0,0-.06,0h0v-.07s0,0,0,0,0,0,0,.05v.24Zm0,.84s0,0,0,0a.07.07,0,0,0,0,.05,1.65,1.65,0,0,1,.07-.21l.06-.07h0s0,0,0,0l0,0s0,0-.11,0a.05.05,0,0,1,0,0,0,0,0,0,0,0,0v.26Zm0-2.15a.06.06,0,0,1,0,0s0,0,0,0l0,0s0,0,0,0h0Zm0,.34a.05.05,0,0,0,0,0l0,0h-.07v.07Zm0,.27,0,0a.16.16,0,0,0,0-.06h-.09v.07S91,10.7,91,10.7Zm0,1.92H91s0,0,0,0H91v0S91,12.62,91,12.62Zm.09.52a.56.56,0,0,0,0,.08.12.12,0,0,0,.06.06l0-.11q-.15,0-.15-.12a.09.09,0,0,1,0-.05v0a0,0,0,0,0,0,0H91a.61.61,0,0,0,0,.12A.39.39,0,0,0,91.06,13.14Zm.5-2.8c.07-.06.11-.1.13-.1h0a.08.08,0,0,1,.06.08.11.11,0,0,1,0,.08l0,0h0l.07,0a.12.12,0,0,1,.09,0h0l0,0a.15.15,0,0,0,0-.07.81.81,0,0,0,0-.17s0-.07,0-.1v0l0,0-.15.14-.2.16-.17.15c0,.05-.08.09-.08.12a.63.63,0,0,1,.12-.1Zm0,2.25a.81.81,0,0,0,.14-.16.31.31,0,0,0,0-.09s0,0,0,0h.07a.08.08,0,0,1,.09.09.25.25,0,0,1,0,.09l0,0,0,0v0l0,0,0,0v0a.39.39,0,0,0-.08.1s0,.05,0,.05l0,0,0,0v0a.14.14,0,0,1-.07.13.14.14,0,0,0-.07.14h0a.35.35,0,0,1,0-.16l.08-.08.07-.05a.05.05,0,0,0,0-.06v0a.88.88,0,0,0,.14-.15.24.24,0,0,0,0-.1l0,0a.1.1,0,0,0,.05,0,.05.05,0,0,1,0,0v-.17a.37.37,0,0,1,0-.11v0s0,0,0,0a.18.18,0,0,1,0,.07l-.06.07v0s0,0,0,0l0,.06,0,0h0a1.5,1.5,0,0,1-.16.2.12.12,0,0,0-.06.09h0a.05.05,0,0,1,0,0Zm0-3.82s0,0,0,.05a.05.05,0,0,0,0,0h0a.1.1,0,0,1,0-.06.09.09,0,0,0,.06-.06h-.06Zm.12,4.73s0,.05,0,.05,0,0,0,.06l.11.05a.33.33,0,0,0,.15,0l0-.08a.22.22,0,0,1,0-.09v0l-.06,0Zm.16-2.42a.93.93,0,0,0-.1.1.49.49,0,0,0-.08.12.63.63,0,0,0,.12-.1l.13-.09h0s0,0,.06-.1a.8.8,0,0,1,0-.11s0,0,0,0a.34.34,0,0,1-.06.12Zm-.1.5,0,.06,0,0h0a.94.94,0,0,0,.1-.1.14.14,0,0,1,.12-.06h.07v-.17a.05.05,0,0,0,0,0,.71.71,0,0,1-.1.14Zm.21-2.83a.38.38,0,0,1-.11.14c-.06,0-.08.08-.08.09a.16.16,0,0,0,.09,0l.09-.08A.41.41,0,0,0,92,8.75Zm-.14,2,0,0,0,0h.09s0,0,0-.05a0,0,0,0,0,0,0,.11.11,0,0,0-.1,0Zm.13-1.62v0h0s0,0,0,0,0,0,.05-.05l0,0a0,0,0,0,0,0,0l0,0ZM92,13.5s0,0,.06-.07a.32.32,0,0,1,0-.06l0,0,0,.07A.19.19,0,0,0,92,13.5Zm.31-2.1a.24.24,0,0,0-.09.08.34.34,0,0,0,0,.11.05.05,0,0,0,0,0l0-.06a.09.09,0,0,0,0-.05h0s0-.06.07-.1.07,0,.07-.07h0l-.08.07A.19.19,0,0,1,92.26,11.4Zm-.09-1.55a.11.11,0,0,0,.08,0h-.06S92.17,9.83,92.17,9.85Zm.12.94a.24.24,0,0,1-.06.08.21.21,0,0,0-.06.1.1.1,0,0,0,.08-.05s0-.05.07-.05l0,0,0,0Zm.21-2a.24.24,0,0,0,0,.08.64.64,0,0,1,0,.07s0,0,0,0h0l0,0A.27.27,0,0,1,92.3,9l-.06.09s0,0,0,.07a.05.05,0,0,0,0,0,.08.08,0,0,1,0,0,1.68,1.68,0,0,1,.28-.23c.08-.05.12-.08.12-.1h0s0,0-.09,0Zm.26,4.9h-.13l0,0h0l-.07,0-.1,0-.08,0-.07,0s0,0,0,0,0,0,0,0H93l0,0s-.06,0-.06,0,0,0,0,0l-.07,0Zm-.41-1.84h0S92.35,11.81,92.35,11.8ZM93,8.72A3.05,3.05,0,0,1,92.7,9l-.14.12-.06.07-.07.12-.06.07-.06.06a.39.39,0,0,0,.23-.13q.06-.09.09-.09l.11-.11.12-.1.1-.08.06,0,.11-.09a.36.36,0,0,0,.09-.08H93Zm-.57,4.13s0,0,0,0S92.41,12.83,92.41,12.85Zm.28-2.07-.14.15-.08.1h0l0,0a.1.1,0,0,1,0,0l.07-.06h0l0,0v0a.41.41,0,0,0,.11-.07Zm.3,2.14h0v0s0,0,0,0,0,0,0,0,0,0,0,0l0,0v0a1.56,1.56,0,0,1-.24.22s-.05.05-.05.08h0l.07-.07.09-.09.09-.09a.09.09,0,0,1,.06,0h0l.06,0,.08-.07.07-.08s0,0,0,0l0,0,0,0h-.14S93,12.85,93,12.92Zm-.3-.07s0,0,0,0h0Zm.45-2.07A.69.69,0,0,1,93,11a1.45,1.45,0,0,0-.18.17.27.27,0,0,0,.15,0L93,11l0-.07,0,0a.13.13,0,0,1,.07-.05.13.13,0,0,0,.06-.07Zm-.27.79h0s0,0,0,0h0s0,0,0,0,0,0,0,0Zm1-2.85h0a.05.05,0,0,0,0,0s0,0-.05,0h0a3,3,0,0,1-.45.39c-.1.06-.15.11-.15.14h0a.44.44,0,0,1,.12-.1l.09-.08h0c.06,0,.09,0,.1-.05l0-.05a.91.91,0,0,1,.23-.17,1,1,0,0,0,.21-.15h0Zm-.62,4.65,0,0,0,0h.06l0,0s0,0,0,0l0,0h0l0,0Zm.28-2.58a.22.22,0,0,1-.08.09l-.1.1-.08.07,0,0v0a.38.38,0,0,1,.12-.13l.11-.07.09,0a.32.32,0,0,0,.09-.08Zm-.19-2s0,0,0,0h0v0s0,0,0,0a.12.12,0,0,1,.07-.07.27.27,0,0,0,.08-.07h-.21S93.32,8.75,93.32,8.77Zm0,2.52s0,0,0,0h0a.16.16,0,0,1,.08-.06l.08-.06s-.07,0-.08,0A.11.11,0,0,1,93.36,11.29Zm.07,1.61a.08.08,0,0,1,0,0,.05.05,0,0,0,0,0h-.07s0,0,0,0,0,0,0,0S93.42,12.89,93.43,12.9Zm.58.75s0,0,0,0,0,0,0,0l-.08,0h-.16s0,0,0,0l-.06,0-.06.06H94Zm-.07-2.85a1,1,0,0,1-.19.17.65.65,0,0,0-.18.15.28.28,0,0,0,.12,0l.07-.05.21-.13A.35.35,0,0,0,94,10.8Zm-.31-1.41s0,0,0,0h0s0-.05.05-.06h.12a0,0,0,0,0,0-.05h0l-.08.06Zm.07,2.15h.11s.07,0,.07,0h0v0s0,0,0,0v0h0a.22.22,0,0,1-.08,0Zm.43-2.77a.05.05,0,0,1,.05,0s0,0,0,0h-.08v.06Zm0,2.77h.18v0a.08.08,0,0,1,0,0v0h0a.2.2,0,0,1-.09.05A.12.12,0,0,0,94.16,11.54Zm.1,2.09,0,0s0,0,0,0h.19l0,0a.06.06,0,0,0,0,0Zm.13-2.79-.18.16h0l.12-.11.08,0,0,0,0,0h-.08Zm0-1.29h.23s0,0,0,0l0,0a.12.12,0,0,1-.08,0A.13.13,0,0,0,94.43,9.55Zm0-.78a.17.17,0,0,0,.1-.07h-.08S94.46,8.72,94.46,8.77Zm.23,4.81-.08.06h-.1s0,0,0,0h.17a.15.15,0,0,0,.1,0s0,0,0,0A0,0,0,0,0,94.69,13.58ZM95,10.74l-.08,0-.13.09-.12.1-.05.06h0s0,0,.07,0,.06,0,0,0l.13-.1,0,0h0l.06,0a.06.06,0,0,1,0-.06s0,0,0,0H95Zm-.26-1.58v0h0a.14.14,0,0,0,.09,0s0-.05.06-.05-.07,0-.08,0A.09.09,0,0,1,94.75,9.16Zm.09.62h0s0,0,0,0h.6l.13,0h0l0,0h-.79Zm0-1,0,0h0l.1-.07A.24.24,0,0,0,95,8.7h-.1S94.89,8.73,94.89,8.78Zm.56.23a.7.7,0,0,1-.19.13l-.11,0c-.09,0-.14,0-.14.05s0,0,0,0l-.06,0a.08.08,0,0,0-.07.07h0l.22-.07a.34.34,0,0,0,.1,0l0,0v0a0,0,0,0,0,0,0h0l.12-.11L95.5,9h0Zm0,.5,0,0a.25.25,0,0,1-.21-.07.32.32,0,0,1-.13.1h-.08a0,0,0,0,1,0,0s0,0,0,0,0,0,.08,0h.51c0-.05,0-.08,0-.09h0ZM95,12.88l.06,0s0,0,.06-.05H95v0a.08.08,0,0,1,0,0l0,0A0,0,0,0,0,95,12.88Zm.55-.14a.24.24,0,0,1-.15.15c-.06,0-.08,0,0,0l-.14.12-.07,0h0v0l-.11.06s0,0,0,0h0l.21-.15.09,0h0l0-.05,0,0h0l.1-.06a.45.45,0,0,0,.07-.07.17.17,0,0,0,.06-.06h-.08l-.06,0Zm.32.72a.17.17,0,0,0-.1,0s0,0-.06,0l0,.05s0,0,0,0h-.15l0-.06a.12.12,0,0,0-.05,0l-.21.13a.28.28,0,0,1-.13,0v0h.48l.08,0h.2l-.06,0h.19l.07,0a.1.1,0,0,1-.09-.12v0h0l0,0Zm-.61-2.52h0l0,0,0,0h0l.13-.08s.07,0,.07-.06h0l0,0Zm-.06.35.08,0,.1,0h0v-.07a.28.28,0,0,1-.09.07A.3.3,0,0,0,95.15,11.29ZM96,12.71l-.14.09,0,.06,0,0s0,0,0,0L95.7,13s0,0,0,0h0l-.08,0-.16.11-.15.12c-.05,0-.07.06-.07.07h0l0,0,0,0,0,0h0a.72.72,0,0,1,.14-.13l.06,0h0l.09-.07,0,0,0-.05.09-.06,0,0,0,0,0,0h0l0,0,0,0H96Zm-.78-3.82h0l.06,0,0,0h0v0h0s0,0,0,0,0,0,0,0h0s0,0,0,0h0s0,0,0,0h0v0h0s0,0,0,0h0s0,0,0,0h-.16a.18.18,0,0,1-.08.11A.53.53,0,0,0,95.22,8.89Zm0,1.76a.14.14,0,0,0,.12-.05h0A.1.1,0,0,0,95.22,10.65Zm0,.89h.08s0,0,0,0,0,0,0,0,0,0,0,0Zm.86-2h-.19l0,0-.11,0h.38s0,0,0,0,0,0,0,0Zm.32,3.19s0,0,0,.06l-.06.06-.08.05a.16.16,0,0,0-.09,0L96,13l-.14.11a.91.91,0,0,0-.1.1l.09,0,0,0h0v0h0a.79.79,0,0,1,.15-.12l.09,0h0l.09-.08.06,0,0,0,0,0h0s0,0,0,0,0,0,0,0h0s0,0,0,0,0,0,0,0Zm-.18.79a.16.16,0,0,1-.08.06s-.06,0-.07,0h.37a0,0,0,0,1,0-.05s0,0,0,0a.11.11,0,0,1-.1,0,.06.06,0,0,1,0,0Zm.12-4.78a.05.05,0,0,1,0,0,.05.05,0,0,0,0,0h0a.15.15,0,0,1,.08,0l.08,0a.34.34,0,0,1,0-.09s0,0-.09,0v0h0Zm.06,4.43,0,0,0,0h0l.07,0s.06,0,.06,0l0,0,0,0Zm0-3.9s-.06,0-.06,0h.13v0s0,0,0,0h0Zm0-.26h.06s0,0,0-.07a.06.06,0,0,0,0,0Zm.11.47h0s0,0,0,0v0h0S96.51,9.48,96.51,9.48Zm0,.15s0,0,0,0S96.54,9.62,96.56,9.63Z"/><path class="cls-4" d="M73.31,15.55h2.37l-.15.73h-2L73,18.81h2l-.14.69H72.53c-.71,0-1-.24-.92-.71l.5-2.52Q72.26,15.55,73.31,15.55Z"/><path class="cls-5" d="M76.39,15.22h1.45L77.48,17h1.08l.29-1.43h1.42l-.79,3.92H78.06l.35-1.79H77.35l-.21,1.1H75.7l.23-1.1h-.38L75.7,17H76Z"/><path class="cls-6" d="M81.09,15.56h1.44l-.79,3.94H80.3Z"/><path class="cls-7" d="M83.3,15.2h1.43l-.08.37h.93c.55,0,.81.15.77.43l.09-.43h.71q1.08,0,.93.72l-.64,3.22H86l.65-3.24h-.38l-.57,2.9H84.3l.58-2.9h-.35L84,18.79H82.59Z"/><path class="cls-8" d="M88.69,16.64h1.44l-.57,2.87H88.12Zm.23-1.07h2.86c.7,0,1,.24.91.71l-.28,1.44c-.1.46-.5.7-1.21.71H90.14l.13-.71H91l.3-1.44H88.77Z"/><path class="cls-9" d="M94.66,15.57h2.51l-.14.71H94.89l-.13.7,1,.19c.68.13,1,.31.95.54l-.22,1.1c-.09.46-.49.69-1.19.7H92.8l.14-.72h2.15l.15-.69-1-.2c-.69-.13-1-.31-1-.53l.22-1.09C93.55,15.81,94,15.57,94.66,15.57Z"/></svg>